<svg xmlns="http://www.w3.org/2000/svg" xmlns:xlink="http://www.w3.org/1999/xlink" width="800" height="440.88"><rect width="800" height="440.88" rx="0" ry="0" class="a"></rect><svg height="440.88" viewBox="0 0 80 44.088" width="800" xmlns="http://www.w3.org/2000/svg" xmlns:xlink="http://www.w3.org/1999/xlink"><style>.a{fill:rgb(40,44,52)}.b{font-family:Consolas,"Courier New",Courier,"Liberation Mono",monospace}.c{fill:rgb(171,178,191);white-space:pre}.d{fill:rgb(92,99,112);white-space:pre}.e{fill:rgb(171,178,191);font-weight:bold;white-space:pre}.f{fill:rgb(86,182,194);white-space:pre}.g{fill:rgb(152,195,121);white-space:pre}.h{fill:transparent}.i{fill:rgb(82,139,255)}.k{animation-duration:21.835s;animation-iteration-count:infinite;animation-name:j;animation-timing-function:steps(1,end)}@keyframes j{0%{transform:translateX(-0px)}0.11%{transform:translateX(-80px)}13.85%{transform:translateX(-160px)}14.21%{transform:translateX(-240px)}27.95%{transform:translateX(-320px)}27.95%{transform:translateX(-400px)}27.95%{transform:translateX(-480px)}27.95%{transform:translateX(-560px)}32.53%{transform:translateX(-640px)}32.53%{transform:translateX(-720px)}41.72%{transform:translateX(-800px)}50.92%{transform:translateX(-880px)}50.92%{transform:translateX(-960px)}56.91%{transform:translateX(-1040px)}61.51%{transform:translateX(-1120px)}61.51%{transform:translateX(-1200px)}70.7%{transform:translateX(-1280px)}79.88%{transform:translateX(-1360px)}79.88%{transform:translateX(-1440px)}79.92%{transform:translateX(-1520px)}86.24%{transform:translateX(-1600px)}86.26%{transform:translateX(-1680px)}86.26%{transform:translateX(-1760px)}86.26%{transform:translateX(-1840px)}100%{transform:translateX(-1920px)}}</style><g font-family="Consolas, &quot;Courier New&quot;, Courier, &quot;Liberation Mono&quot;, monospace" font-size="1.67" class="b"><defs><symbol id="1"><text x="0" y="1.67" class="c">$</text></symbol><symbol id="2"><text x="0" y="1.67" class="c">$</text><text x="2.004" y="1.67" class="c">php</text><text x="6.012" y="1.67" class="c">init.php</text></symbol><symbol id="3"><text x="0" y="1.67" class="d">┌</text><text x="3.006" y="1.67" class="e">Drupal</text><text x="10.02" y="1.67" class="e">Extension</text><text x="20.04" y="1.67" class="e">Scaffold</text></symbol><symbol id="4"><text x="0" y="1.67" class="d">│</text></symbol><symbol id="5"><text x="0" y="1.67" class="f">◇</text><text x="3.006" y="1.67" class="c">Extension</text><text x="13.026" y="1.67" class="c">name</text><text x="18.035999999999998" y="1.67" class="c">(1)</text></symbol><symbol id="6"><text x="0" y="1.67" class="f">◆</text><text x="3.006" y="1.67" class="c">Extension</text><text x="13.026" y="1.67" class="c">name</text><text x="18.035999999999998" y="1.67" class="c">(1)</text></symbol><symbol id="7"><text x="0" y="1.67" class="d">│</text><text x="3.006" y="1.67" class="c">Your</text><text x="8.016" y="1.67" class="c">Extension</text></symbol><symbol id="8"><text x="0" y="1.67" class="f">◆</text><text x="3.006" y="1.67" class="c">Machine</text><text x="11.021999999999998" y="1.67" class="c">name</text><text x="16.032" y="1.67" class="c">(2)</text></symbol><symbol id="9"><text x="0" y="1.67" class="d">│</text><text x="3.006" y="1.67" class="c">my_extension</text></symbol><symbol id="10"><text x="0" y="1.67" class="f">◆</text><text x="3.006" y="1.67" class="c">Extension</text><text x="13.026" y="1.67" class="c">type</text><text x="18.035999999999998" y="1.67" class="c">(3)</text></symbol><symbol id="11"><text x="0" y="1.67" class="d">│</text><text x="3.006" y="1.67" class="c">Module</text></symbol><symbol id="12"><text x="0" y="1.67" class="f">◆</text><text x="3.006" y="1.67" class="c">CI</text><text x="6.012" y="1.67" class="c">provider</text><text x="15.029999999999998" y="1.67" class="c">(4)</text></symbol><symbol id="13"><text x="0" y="1.67" class="d">│</text><text x="3.006" y="1.67" class="c">GitHub</text><text x="10.02" y="1.67" class="c">Actions</text></symbol><symbol id="14"><text x="0" y="1.67" class="f">◆</text><text x="3.006" y="1.67" class="c">Command</text><text x="11.021999999999998" y="1.67" class="c">wrapper</text><text x="19.037999999999997" y="1.67" class="c">(5)</text></symbol><symbol id="15"><text x="0" y="1.67" class="d">│</text><text x="3.006" y="1.67" class="c">Ahoy</text></symbol><symbol id="16"><text x="0" y="1.67" class="f">◆</text><text x="3.006" y="1.67" class="c">Tools</text><text x="9.017999999999999" y="1.67" class="c">to</text><text x="12.024" y="1.67" class="c">remove</text><text x="19.037999999999997" y="1.67" class="c">(6)</text></symbol><symbol id="17"><text x="0" y="1.67" class="d">│</text><text x="3.006" y="1.67" class="c">None</text></symbol><symbol id="18"><text x="0" y="1.67" class="d">│</text><text x="3.006" y="1.67" class="g">●</text><text x="5.01" y="1.67" class="c">Yes</text><text x="9.017999999999999" y="1.67" class="c">/</text><text x="11.021999999999998" y="1.67" class="c">○</text><text x="13.026" y="1.67" class="c">No</text></symbol><symbol id="19"><text x="0" y="1.67" class="f">◆</text><text x="3.006" y="1.67" class="c">Remove</text><text x="10.02" y="1.67" class="c">this</text><text x="15.029999999999998" y="1.67" class="c">script</text><text x="22.043999999999997" y="1.67" class="c">(7)</text></symbol><symbol id="20"><text x="0" y="1.67" class="d">│</text><text x="3.006" y="1.67" class="c">Yes</text></symbol><symbol id="21"><text x="0" y="1.67" class="f">◇</text><text x="3.006" y="1.67" class="c">Proceed</text><text x="11.021999999999998" y="1.67" class="c">with</text><text x="16.032" y="1.67" class="c">project</text><text x="24.048" y="1.67" class="c">init</text><text x="29.058" y="1.67" class="c">(8)</text></symbol><symbol id="22"><text x="0" y="1.67" class="f">◆</text><text x="3.006" y="1.67" class="c">Proceed</text><text x="11.021999999999998" y="1.67" class="c">with</text><text x="16.032" y="1.67" class="c">project</text><text x="24.048" y="1.67" class="c">init</text><text x="29.058" y="1.67" class="c">(8)</text></symbol><symbol id="23"><text x="0" y="1.67" class="c">$</text><text x="2.004" y="1.67" class="c">exit</text></symbol><symbol id="24"><text x="0" y="1.67" class="c">exit</text></symbol><symbol id="a"><rect height="24" width="80" x="0" y="0" class="h"></rect></symbol><symbol id="b"><rect height="1.837" width="1.1022" class="i"></rect></symbol></defs><rect height="44.088" width="80" class="a"></rect><g class="k"><svg x="0" y="0" width="2000"><svg x="0"><use xlink:href="#a"></use><use xlink:href="#b" x="-0.0040000000000000036" y="0"></use></svg><svg x="80"><use xlink:href="#a"></use><use xlink:href="#b" x="1.996" y="0"></use><use xlink:href="#1" y="0"></use></svg><svg x="160"><use xlink:href="#a"></use><use xlink:href="#b" x="-0.0040000000000000036" y="1.662"></use><use xlink:href="#2" y="0"></use></svg><svg x="240"><use xlink:href="#a"></use><use xlink:href="#2" y="0"></use><use xlink:href="#3" y="3.674"></use><use xlink:href="#4" y="5.511"></use><use xlink:href="#5" y="7.348"></use><use xlink:href="#4" y="9.185"></use><text x="0" y="12.692" class="d">│</text><text x="3.006" y="12.692" class="d">My</text><text x="6.012" y="12.692" class="d">Extension</text><text x="15.029999999999998" y="12.692" class="f">█</text><use xlink:href="#4" y="12.859"></use></svg><svg x="320"><use xlink:href="#a"></use><use xlink:href="#2" y="0"></use><use xlink:href="#3" y="3.674"></use><use xlink:href="#4" y="5.511"></use><text x="0" y="9.018" class="f">◇</text><text x="3.006" y="9.018" class="c">Extension</text><text x="13.026" y="9.018" class="c">name</text></svg><svg x="400"><use xlink:href="#a"></use><use xlink:href="#2" y="0"></use><use xlink:href="#3" y="3.674"></use><use xlink:href="#4" y="5.511"></use><use xlink:href="#5" y="7.348"></use><use xlink:href="#4" y="9.185"></use></svg><svg x="480"><use xlink:href="#a"></use><use xlink:href="#2" y="0"></use><use xlink:href="#3" y="3.674"></use><use xlink:href="#4" y="5.511"></use><use xlink:href="#6" y="7.348"></use><use xlink:href="#7" y="9.185"></use><use xlink:href="#4" y="11.022"></use></svg><svg x="560"><use xlink:href="#a"></use><use xlink:href="#2" y="0"></use><use xlink:href="#3" y="3.674"></use><use xlink:href="#4" y="5.511"></use><use xlink:href="#6" y="7.348"></use><use xlink:href="#7" y="9.185"></use><use xlink:href="#4" y="11.022"></use><text x="0" y="14.529" class="f">◇</text><text x="3.006" y="14.529" class="c">Machine</text><text x="11.021999999999998" y="14.529" class="c">name</text><text x="16.032" y="14.529" class="c">(2)</text><use xlink:href="#4" y="14.696"></use><text x="0" y="18.203000000000003" class="d">│</text><text x="3.006" y="18.203000000000003" class="d">my_extension</text><text x="15.029999999999998" y="18.203000000000003" class="f">█</text><use xlink:href="#4" y="18.37"></use></svg><svg x="640"><use xlink:href="#a"></use><use xlink:href="#2" y="0"></use><use xlink:href="#3" y="3.674"></use><use xlink:href="#4" y="5.511"></use><use xlink:href="#6" y="7.348"></use><use xlink:href="#7" y="9.185"></use><use xlink:href="#4" y="11.022"></use><use xlink:href="#8" y="12.859"></use><use xlink:href="#9" y="14.696"></use><use xlink:href="#4" y="16.533"></use></svg><svg x="720"><use xlink:href="#a"></use><use xlink:href="#2" y="0"></use><use xlink:href="#3" y="3.674"></use><use xlink:href="#4" y="5.511"></use><use xlink:href="#6" y="7.348"></use><use xlink:href="#7" y="9.185"></use><use xlink:href="#4" y="11.022"></use><use xlink:href="#8" y="12.859"></use><use xlink:href="#9" y="14.696"></use><use xlink:href="#4" y="16.533"></use><text x="0" y="20.04" class="f">◇</text><text x="3.006" y="20.04" class="c">Extension</text><text x="13.026" y="20.04" class="c">type</text><text x="18.035999999999998" y="20.04" class="c">(3)</text><use xlink:href="#4" y="20.206999999999997"></use><text x="0" y="23.714" class="d">│</text><text x="3.006" y="23.714" class="g">●</text><text x="5.01" y="23.714" class="c">Module</text><text x="0" y="25.551000000000002" class="d">│</text><text x="3.006" y="25.551000000000002" class="c">○</text><text x="5.01" y="25.551000000000002" class="c">Theme</text><use xlink:href="#4" y="25.718"></use></svg><svg x="800"><use xlink:href="#a"></use><use xlink:href="#2" y="0"></use><use xlink:href="#3" y="3.674"></use><use xlink:href="#4" y="5.511"></use><use xlink:href="#6" y="7.348"></use><use xlink:href="#7" y="9.185"></use><use xlink:href="#4" y="11.022"></use><use xlink:href="#8" y="12.859"></use><use xlink:href="#9" y="14.696"></use><use xlink:href="#4" y="16.533"></use><use xlink:href="#10" y="18.37"></use><use xlink:href="#11" y="20.206999999999997"></use><use xlink:href="#4" y="22.044"></use><text x="0" y="25.551000000000002" class="f">◇</text><text x="3.006" y="25.551000000000002" class="c">CI</text><text x="6.012" y="25.551000000000002" class="c">provider</text><text x="15.029999999999998" y="25.551000000000002" class="c">(4)</text><use xlink:href="#4" y="25.718"></use><text x="0" y="29.225" class="d">│</text><text x="3.006" y="29.225" class="g">●</text><text x="5.01" y="29.225" class="c">GitHub</text><text x="12.024" y="29.225" class="c">Actions</text><text x="0" y="31.061999999999998" class="d">│</text><text x="3.006" y="31.061999999999998" class="c">○</text><text x="5.01" y="31.061999999999998" class="c">CircleCI</text><use xlink:href="#4" y="31.229000000000003"></use></svg><svg x="880"><use xlink:href="#a"></use><use xlink:href="#2" y="0"></use><use xlink:href="#3" y="3.674"></use><use xlink:href="#4" y="5.511"></use><use xlink:href="#6" y="7.348"></use><use xlink:href="#7" y="9.185"></use><use xlink:href="#4" y="11.022"></use><use xlink:href="#8" y="12.859"></use><use xlink:href="#9" y="14.696"></use><use xlink:href="#4" y="16.533"></use><use xlink:href="#10" y="18.37"></use><use xlink:href="#11" y="20.206999999999997"></use><use xlink:href="#4" y="22.044"></use><use xlink:href="#12" y="23.881000000000004"></use><use xlink:href="#13" y="25.718"></use><use xlink:href="#4" y="27.555"></use></svg><svg x="960"><use xlink:href="#a"></use><use xlink:href="#2" y="0"></use><use xlink:href="#3" y="3.674"></use><use xlink:href="#4" y="5.511"></use><use xlink:href="#6" y="7.348"></use><use xlink:href="#7" y="9.185"></use><use xlink:href="#4" y="11.022"></use><use xlink:href="#8" y="12.859"></use><use xlink:href="#9" y="14.696"></use><use xlink:href="#4" y="16.533"></use><use xlink:href="#10" y="18.37"></use><use xlink:href="#11" y="20.206999999999997"></use><use xlink:href="#4" y="22.044"></use><use xlink:href="#12" y="23.881000000000004"></use><use xlink:href="#13" y="25.718"></use><use xlink:href="#4" y="27.555"></use><text x="0" y="31.061999999999998" class="f">◇</text><text x="3.006" y="31.061999999999998" class="c">Command</text><text x="11.021999999999998" y="31.061999999999998" class="c">wrapper</text><text x="19.037999999999997" y="31.061999999999998" class="c">(5)</text><use xlink:href="#4" y="31.229000000000003"></use><text x="0" y="34.736000000000004" class="d">│</text><text x="3.006" y="34.736000000000004" class="g">◻</text><text x="5.01" y="34.736000000000004" class="c">Ahoy</text><text x="0" y="36.573" class="d">│</text><text x="3.006" y="36.573" class="c">◻</text><text x="5.01" y="36.573" class="c">Makefile</text><use xlink:href="#4" y="36.74"></use></svg><svg x="1040"><use xlink:href="#a"></use><use xlink:href="#11" y="0"></use><use xlink:href="#4" y="1.837"></use><use xlink:href="#12" y="3.674"></use><use xlink:href="#13" y="5.511"></use><use xlink:href="#4" y="7.348"></use><use xlink:href="#14" y="9.185"></use><use xlink:href="#15" y="11.022"></use><use xlink:href="#4" y="12.859"></use><text x="0" y="16.366" class="f">◇</text><text x="3.006" y="16.366" class="c">Tools</text><text x="9.017999999999999" y="16.366" class="c">to</text><text x="12.024" y="16.366" class="c">remove</text><text x="19.037999999999997" y="16.366" class="c">(6)</text><text x="0" y="18.203000000000003" class="d">│</text><text x="3.006" y="18.203000000000003" class="c">All</text><text x="7.013999999999999" y="18.203000000000003" class="c">tools</text><text x="13.026" y="18.203000000000003" class="c">are</text><text x="17.034" y="18.203000000000003" class="c">kept</text><text x="22.043999999999997" y="18.203000000000003" class="c">by</text><text x="25.05" y="18.203000000000003" class="c">default.</text><text x="34.068" y="18.203000000000003" class="c">Select</text><text x="41.082" y="18.203000000000003" class="c">any</text><text x="45.089999999999996" y="18.203000000000003" class="c">to</text><text x="48.096" y="18.203000000000003" class="c">remove</text><text x="55.10999999999999" y="18.203000000000003" class="c">from</text><text x="60.11999999999999" y="18.203000000000003" class="c">your</text><text x="65.13" y="18.203000000000003" class="c">project.</text><use xlink:href="#4" y="18.37"></use><text x="0" y="21.876999999999995" class="d">│</text><text x="3.006" y="21.876999999999995" class="g">◻</text><text x="5.01" y="21.876999999999995" class="c">PHPCS</text><text x="0" y="23.714" class="d">│</text><text x="3.006" y="23.714" class="c">◻</text><text x="5.01" y="23.714" class="c">PHPStan</text><text x="0" y="25.551000000000002" class="d">│</text><text x="3.006" y="25.551000000000002" class="c">◻</text><text x="5.01" y="25.551000000000002" class="c">Rector</text><text x="0" y="27.387999999999998" class="d">│</text><text x="3.006" y="27.387999999999998" class="c">◻</text><text x="5.01" y="27.387999999999998" class="c">Twig</text><text x="10.02" y="27.387999999999998" class="c">CS</text><text x="13.026" y="27.387999999999998" class="c">Fixer</text><text x="0" y="29.225" class="d">│</text><text x="3.006" y="29.225" class="c">◻</text><text x="5.01" y="29.225" class="c">ESLint</text><text x="0" y="31.061999999999998" class="d">│</text><text x="3.006" y="31.061999999999998" class="c">◻</text><text x="5.01" y="31.061999999999998" class="c">Stylelint</text><text x="0" y="32.899" class="d">│</text><text x="3.006" y="32.899" class="c">◻</text><text x="5.01" y="32.899" class="c">CSpell</text><text x="0" y="34.736000000000004" class="d">│</text><text x="3.006" y="34.736000000000004" class="c">◻</text><text x="5.01" y="34.736000000000004" class="c">Jest</text><text x="0" y="36.573" class="d">│</text><text x="3.006" y="36.573" class="c">◻</text><text x="5.01" y="36.573" class="c">PHPUnit</text><text x="0" y="38.410000000000004" class="d">│</text><text x="3.006" y="38.410000000000004" class="c">◻</text><text x="5.01" y="38.410000000000004" class="c">FunctionalJavascript</text><text x="26.052" y="38.410000000000004" class="c">tests</text><text x="0" y="40.24700000000001" class="d">│</text><text x="3.006" y="40.24700000000001" class="c">◻</text><text x="5.01" y="40.24700000000001" class="c">Renovate</text><use xlink:href="#4" y="40.413999999999994"></use></svg><svg x="1120"><use xlink:href="#a"></use><use xlink:href="#11" y="0"></use><use xlink:href="#4" y="1.837"></use><use xlink:href="#12" y="3.674"></use><use xlink:href="#13" y="5.511"></use><use xlink:href="#4" y="7.348"></use><use xlink:href="#14" y="9.185"></use><use xlink:href="#15" y="11.022"></use><use xlink:href="#4" y="12.859"></use><use xlink:href="#16" y="14.696"></use><use xlink:href="#17" y="16.533"></use><use xlink:href="#4" y="18.37"></use></svg><svg x="1200"><use xlink:href="#a"></use><use xlink:href="#11" y="0"></use><use xlink:href="#4" y="1.837"></use><use xlink:href="#12" y="3.674"></use><use xlink:href="#13" y="5.511"></use><use xlink:href="#4" y="7.348"></use><use xlink:href="#14" y="9.185"></use><use xlink:href="#15" y="11.022"></use><use xlink:href="#4" y="12.859"></use><use xlink:href="#16" y="14.696"></use><use xlink:href="#17" y="16.533"></use><use xlink:href="#4" y="18.37"></use><text x="0" y="21.876999999999995" class="f">◇</text><text x="3.006" y="21.876999999999995" class="c">Remove</text><text x="10.02" y="21.876999999999995" class="c">this</text><text x="15.029999999999998" y="21.876999999999995" class="c">script</text><text x="22.043999999999997" y="21.876999999999995" class="c">(7)</text><use xlink:href="#4" y="22.044"></use><use xlink:href="#18" y="23.881000000000004"></use><use xlink:href="#4" y="25.718"></use></svg><svg x="1280"><use xlink:href="#a"></use><use xlink:href="#11" y="0"></use><use xlink:href="#4" y="1.837"></use><use xlink:href="#12" y="3.674"></use><use xlink:href="#13" y="5.511"></use><use xlink:href="#4" y="7.348"></use><use xlink:href="#14" y="9.185"></use><use xlink:href="#15" y="11.022"></use><use xlink:href="#4" y="12.859"></use><use xlink:href="#16" y="14.696"></use><use xlink:href="#17" y="16.533"></use><use xlink:href="#4" y="18.37"></use><use xlink:href="#19" y="20.206999999999997"></use><use xlink:href="#20" y="22.044"></use><use xlink:href="#4" y="23.881000000000004"></use><use xlink:href="#21" y="25.718"></use><use xlink:href="#4" y="27.555"></use><use xlink:href="#18" y="29.392"></use><use xlink:href="#4" y="31.229000000000003"></use></svg><svg x="1360"><use xlink:href="#a"></use><use xlink:href="#11" y="0"></use><use xlink:href="#4" y="1.837"></use><use xlink:href="#12" y="3.674"></use><use xlink:href="#13" y="5.511"></use><use xlink:href="#4" y="7.348"></use><use xlink:href="#14" y="9.185"></use><use xlink:href="#15" y="11.022"></use><use xlink:href="#4" y="12.859"></use><use xlink:href="#16" y="14.696"></use><use xlink:href="#17" y="16.533"></use><use xlink:href="#4" y="18.37"></use><use xlink:href="#19" y="20.206999999999997"></use><use xlink:href="#20" y="22.044"></use><use xlink:href="#4" y="23.881000000000004"></use><use xlink:href="#21" y="25.718"></use><use xlink:href="#4" y="27.555"></use><use xlink:href="#18" y="29.392"></use><use xlink:href="#4" y="31.229000000000003"></use></svg><svg x="1440"><use xlink:href="#a"></use><use xlink:href="#11" y="0"></use><use xlink:href="#4" y="1.837"></use><use xlink:href="#12" y="3.674"></use><use xlink:href="#13" y="5.511"></use><use xlink:href="#4" y="7.348"></use><use xlink:href="#14" y="9.185"></use><use xlink:href="#15" y="11.022"></use><use xlink:href="#4" y="12.859"></use><use xlink:href="#16" y="14.696"></use><use xlink:href="#17" y="16.533"></use><use xlink:href="#4" y="18.37"></use><use xlink:href="#19" y="20.206999999999997"></use><use xlink:href="#20" y="22.044"></use><use xlink:href="#4" y="23.881000000000004"></use><use xlink:href="#22" y="25.718"></use><use xlink:href="#20" y="27.555"></use><use xlink:href="#4" y="29.392"></use></svg><svg x="1520"><use xlink:href="#a"></use><use xlink:href="#b" x="-0.0040000000000000036" y="31.054000000000002"></use><use xlink:href="#11" y="0"></use><use xlink:href="#4" y="1.837"></use><use xlink:href="#12" y="3.674"></use><use xlink:href="#13" y="5.511"></use><use xlink:href="#4" y="7.348"></use><use xlink:href="#14" y="9.185"></use><use xlink:href="#15" y="11.022"></use><use xlink:href="#4" y="12.859"></use><use xlink:href="#16" y="14.696"></use><use xlink:href="#17" y="16.533"></use><use xlink:href="#4" y="18.37"></use><use xlink:href="#19" y="20.206999999999997"></use><use xlink:href="#20" y="22.044"></use><use xlink:href="#4" y="23.881000000000004"></use><use xlink:href="#22" y="25.718"></use><use xlink:href="#20" y="27.555"></use><use xlink:href="#4" y="29.392"></use></svg><svg x="1600"><use xlink:href="#a"></use><use xlink:href="#b" x="-0.0040000000000000036" y="31.054000000000002"></use><use xlink:href="#11" y="0"></use><use xlink:href="#4" y="1.837"></use><use xlink:href="#12" y="3.674"></use><use xlink:href="#13" y="5.511"></use><use xlink:href="#4" y="7.348"></use><use xlink:href="#14" y="9.185"></use><use xlink:href="#15" y="11.022"></use><use xlink:href="#4" y="12.859"></use><use xlink:href="#16" y="14.696"></use><use xlink:href="#17" y="16.533"></use><use xlink:href="#4" y="18.37"></use><use xlink:href="#19" y="20.206999999999997"></use><use xlink:href="#20" y="22.044"></use><use xlink:href="#4" y="23.881000000000004"></use><use xlink:href="#22" y="25.718"></use><use xlink:href="#20" y="27.555"></use><use xlink:href="#4" y="29.392"></use></svg><svg x="1680"><use xlink:href="#a"></use><use xlink:href="#b" x="1.996" y="31.054000000000002"></use><use xlink:href="#11" y="0"></use><use xlink:href="#4" y="1.837"></use><use xlink:href="#12" y="3.674"></use><use xlink:href="#13" y="5.511"></use><use xlink:href="#4" y="7.348"></use><use xlink:href="#14" y="9.185"></use><use xlink:href="#15" y="11.022"></use><use xlink:href="#4" y="12.859"></use><use xlink:href="#16" y="14.696"></use><use xlink:href="#17" y="16.533"></use><use xlink:href="#4" y="18.37"></use><use xlink:href="#19" y="20.206999999999997"></use><use xlink:href="#20" y="22.044"></use><use xlink:href="#4" y="23.881000000000004"></use><use xlink:href="#22" y="25.718"></use><use xlink:href="#20" y="27.555"></use><use xlink:href="#4" y="29.392"></use><use xlink:href="#1" y="31.229000000000003"></use></svg><svg x="1760"><use xlink:href="#a"></use><use xlink:href="#b" x="-0.0040000000000000036" y="32.891000000000005"></use><use xlink:href="#11" y="0"></use><use xlink:href="#4" y="1.837"></use><use xlink:href="#12" y="3.674"></use><use xlink:href="#13" y="5.511"></use><use xlink:href="#4" y="7.348"></use><use xlink:href="#14" y="9.185"></use><use xlink:href="#15" y="11.022"></use><use xlink:href="#4" y="12.859"></use><use xlink:href="#16" y="14.696"></use><use xlink:href="#17" y="16.533"></use><use xlink:href="#4" y="18.37"></use><use xlink:href="#19" y="20.206999999999997"></use><use xlink:href="#20" y="22.044"></use><use xlink:href="#4" y="23.881000000000004"></use><use xlink:href="#22" y="25.718"></use><use xlink:href="#20" y="27.555"></use><use xlink:href="#4" y="29.392"></use><use xlink:href="#23" y="31.229000000000003"></use></svg><svg x="1840"><use xlink:href="#a"></use><use xlink:href="#b" x="-0.0040000000000000036" y="34.728"></use><use xlink:href="#11" y="0"></use><use xlink:href="#4" y="1.837"></use><use xlink:href="#12" y="3.674"></use><use xlink:href="#13" y="5.511"></use><use xlink:href="#4" y="7.348"></use><use xlink:href="#14" y="9.185"></use><use xlink:href="#15" y="11.022"></use><use xlink:href="#4" y="12.859"></use><use xlink:href="#16" y="14.696"></use><use xlink:href="#17" y="16.533"></use><use xlink:href="#4" y="18.37"></use><use xlink:href="#19" y="20.206999999999997"></use><use xlink:href="#20" y="22.044"></use><use xlink:href="#4" y="23.881000000000004"></use><use xlink:href="#22" y="25.718"></use><use xlink:href="#20" y="27.555"></use><use xlink:href="#4" y="29.392"></use><use xlink:href="#23" y="31.229000000000003"></use><use xlink:href="#24" y="33.066"></use></svg><svg x="1920"><use xlink:href="#a"></use><use xlink:href="#b" x="0.996" y="34.728"></use><use xlink:href="#11" y="0"></use><use xlink:href="#4" y="1.837"></use><use xlink:href="#12" y="3.674"></use><use xlink:href="#13" y="5.511"></use><use xlink:href="#4" y="7.348"></use><use xlink:href="#14" y="9.185"></use><use xlink:href="#15" y="11.022"></use><use xlink:href="#4" y="12.859"></use><use xlink:href="#16" y="14.696"></use><use xlink:href="#17" y="16.533"></use><use xlink:href="#4" y="18.37"></use><use xlink:href="#19" y="20.206999999999997"></use><use xlink:href="#20" y="22.044"></use><use xlink:href="#4" y="23.881000000000004"></use><use xlink:href="#22" y="25.718"></use><use xlink:href="#20" y="27.555"></use><use xlink:href="#4" y="29.392"></use><use xlink:href="#23" y="31.229000000000003"></use><use xlink:href="#24" y="33.066"></use></svg></svg></g></g></svg></svg>