<svg xmlns="http://www.w3.org/2000/svg" xmlns:xlink="http://www.w3.org/1999/xlink" width="800" height="440.88"><rect width="800" height="440.88" rx="0" ry="0" class="a"></rect><svg height="440.88" viewBox="0 0 80 44.088" width="800" xmlns="http://www.w3.org/2000/svg" xmlns:xlink="http://www.w3.org/1999/xlink"><style>.a{fill:rgb(40,44,52)}.b{font-family:Consolas,"Courier New",Courier,"Liberation Mono",monospace}.c{fill:rgb(171,178,191);white-space:pre}.d{fill:rgb(0,128,128);white-space:pre}.e{fill:rgb(168,204,140)}.f{white-space:pre}.g{fill:transparent}.h{fill:rgb(82,139,255)}.j{animation-duration:15.657s;animation-iteration-count:infinite;animation-name:i;animation-timing-function:steps(1,end)}@keyframes i{0%{transform:translateX(-0px)}0.2%{transform:translateX(-80px)}19.3%{transform:translateX(-160px)}19.3%{transform:translateX(-240px)}19.7%{transform:translateX(-320px)}23.4%{transform:translateX(-400px)}23.5%{transform:translateX(-480px)}23.5%{transform:translateX(-560px)}23.5%{transform:translateX(-640px)}23.5%{transform:translateX(-720px)}23.6%{transform:translateX(-800px)}23.6%{transform:translateX(-880px)}23.9%{transform:translateX(-960px)}26.9%{transform:translateX(-1040px)}32.5%{transform:translateX(-1120px)}48.1%{transform:translateX(-1200px)}48.4%{transform:translateX(-1280px)}48.4%{transform:translateX(-1360px)}48.4%{transform:translateX(-1440px)}48.7%{transform:translateX(-1520px)}57.7%{transform:translateX(-1600px)}57.7%{transform:translateX(-1680px)}57.7%{transform:translateX(-1760px)}58%{transform:translateX(-1840px)}61.1%{transform:translateX(-1920px)}61.1%{transform:translateX(-2000px)}61.1%{transform:translateX(-2080px)}61.3%{transform:translateX(-2160px)}62.4%{transform:translateX(-2240px)}62.4%{transform:translateX(-2320px)}62.4%{transform:translateX(-2400px)}63.9%{transform:translateX(-2480px)}63.9%{transform:translateX(-2560px)}63.9%{transform:translateX(-2640px)}72.3%{transform:translateX(-2720px)}72.3%{transform:translateX(-2800px)}72.3%{transform:translateX(-2880px)}73%{transform:translateX(-2960px)}73%{transform:translateX(-3040px)}80.8%{transform:translateX(-3120px)}80.8%{transform:translateX(-3200px)}80.8%{transform:translateX(-3280px)}80.8%{transform:translateX(-3360px)}80.8%{transform:translateX(-3440px)}80.8%{transform:translateX(-3520px)}80.8%{transform:translateX(-3600px)}80.8%{transform:translateX(-3680px)}80.8%{transform:translateX(-3760px)}80.8%{transform:translateX(-3840px)}80.8%{transform:translateX(-3920px)}100%{transform:translateX(-4000px)}}</style><g font-family="Consolas, &quot;Courier New&quot;, Courier, &quot;Liberation Mono&quot;, monospace" font-size="1.67" class="b"><defs><symbol id="1"><text x="0" y="1.67" class="c">$</text></symbol><symbol id="2"><text x="0" y="1.67" class="c">$</text><text x="2.004" y="1.67" class="c">ahoy</text><text x="7.013999999999999" y="1.67" class="c">lint</text></symbol><symbol id="3"><text x="0" y="1.67" class="d">Running</text><text x="8.016" y="1.67" class="d">PHPCS</text></symbol><symbol id="4"><text x="0" y="1.67" class="c">..........</text><text x="11.021999999999998" y="1.67" class="c">10</text><text x="14.027999999999999" y="1.67" class="c">/</text><text x="16.032" y="1.67" class="c">10</text><text x="19.037999999999997" y="1.67" class="c">(100%)</text></symbol><symbol id="5"><text x="0" y="1.67" class="c">Time:</text><text x="6.012" y="1.67" class="c">388ms;</text><text x="13.026" y="1.67" class="c">Memory:</text><text x="21.041999999999998" y="1.67" class="c">16MB</text></symbol><symbol id="6"><text x="0" y="1.67" class="d">Running</text><text x="8.016" y="1.67" class="d">PHPStan</text></symbol><symbol id="7"><text x="0" y="1.67" class="c">Note:</text><text x="6.012" y="1.67" class="c">Using</text><text x="12.024" y="1.67" class="c">configuration</text><text x="26.052" y="1.67" class="c">file</text><text x="31.061999999999998" y="1.67" class="c">/private/home/user/project/build/phpstan.neon.</text></symbol><symbol id="8"><text x="1.002" y="1.67" class="c">10/10</text><text x="7.013999999999999" y="1.67" class="c">[▓▓▓▓▓▓▓▓▓▓▓▓▓▓▓▓▓▓▓▓▓▓▓▓▓▓▓▓]</text><text x="38.07599999999999" y="1.67" class="c">100%</text></symbol><symbol id="9"><rect height="1.837" width="80" x="0" y="0" class="e"></rect><text x="0" y="1.67" class="f">                                                                                </text></symbol><symbol id="10"><rect height="1.837" width="80" x="0" y="0" class="e"></rect><text x="0" y="1.67" class="f"> [OK] No errors                                                                 </text></symbol><symbol id="11"><text x="0" y="1.67" class="d">Running</text><text x="8.016" y="1.67" class="d">Rector</text></symbol><symbol id="12"><rect height="1.837" width="80" x="0" y="0" class="e"></rect><text x="0" y="1.67" class="f"> [OK] Rector is done!                                                           </text></symbol><symbol id="13"><text x="0" y="1.67" class="d">Running</text><text x="8.016" y="1.67" class="d">Twig</text><text x="13.026" y="1.67" class="d">CS</text><text x="16.032" y="1.67" class="d">Fixer</text></symbol><symbol id="14"><rect height="1.837" width="80" x="0" y="0" class="e"></rect><text x="0" y="1.67" class="f"> [OK] Files linted: 0, notices: 0, warnings: 0, errors: 0                       </text></symbol><symbol id="15"><text x="0" y="1.67" class="d">Running</text><text x="8.016" y="1.67" class="d">ESLint</text></symbol><symbol id="16"><text x="0" y="1.67" class="c">&gt;</text><text x="2.004" y="1.67" class="c">@drupal/your_extension@0.1.0</text><text x="31.061999999999998" y="1.67" class="c">lint</text></symbol><symbol id="17"><text x="0" y="1.67" class="c">&gt;</text><text x="2.004" y="1.67" class="c">npm</text><text x="6.012" y="1.67" class="c">run</text><text x="10.02" y="1.67" class="c">lint-js</text><text x="18.035999999999998" y="1.67" class="c">&amp;&amp;</text><text x="21.041999999999998" y="1.67" class="c">npm</text><text x="25.05" y="1.67" class="c">run</text><text x="29.058" y="1.67" class="c">lint-css</text></symbol><symbol id="18"><text x="0" y="1.67" class="c">&gt;</text><text x="2.004" y="1.67" class="c">@drupal/your_extension@0.1.0</text><text x="31.061999999999998" y="1.67" class="c">lint-js</text></symbol><symbol id="19"><text x="0" y="1.67" class="c">&gt;</text><text x="2.004" y="1.67" class="c">eslint</text><text x="9.017999999999999" y="1.67" class="c">web/modules/custom</text><text x="28.055999999999997" y="1.67" class="c">web/themes/custom</text><text x="46.09199999999999" y="1.67" class="c">--ext</text><text x="52.104" y="1.67" class="c">.js</text><text x="56.111999999999995" y="1.67" class="c">--max-warnings=0</text><text x="73.146" y="1.67" class="c">--no-er</text></symbol><symbol id="20"><text x="0" y="1.67" class="c">ror-on-unmatched-pattern</text></symbol><symbol id="21"><text x="0" y="1.67" class="c">⠙</text></symbol><symbol id="22"><text x="0" y="1.67" class="c">&gt;</text><text x="2.004" y="1.67" class="c">@drupal/your_extension@0.1.0</text><text x="31.061999999999998" y="1.67" class="c">lint-css</text></symbol><symbol id="23"><text x="0" y="1.67" class="c">&gt;</text><text x="2.004" y="1.67" class="c">stylelint</text><text x="12.024" y="1.67" class="c">--allow-empty-input</text><text x="32.064" y="1.67" class="c">&quot;web/modules/custom/**/*.css&quot;</text><text x="62.123999999999995" y="1.67" class="c">&quot;web/themes/custom</text></symbol><symbol id="24"><text x="0" y="1.67" class="c">/**/*.css&quot;</text></symbol><symbol id="25"><text x="0" y="1.67" class="c">$</text><text x="2.004" y="1.67" class="c">echo</text><text x="7.013999999999999" y="1.67" class="c">__EXIT_CODE=$?</text></symbol><symbol id="26"><text x="0" y="1.67" class="c">__EXIT_CODE=0</text></symbol><symbol id="27"><text x="0" y="1.67" class="c">$</text><text x="2.004" y="1.67" class="c">exit</text></symbol><symbol id="28"><text x="0" y="1.67" class="c">exit</text></symbol><symbol id="a"><rect height="24" width="80" x="0" y="0" class="g"></rect></symbol><symbol id="b"><rect height="1.837" width="1.1022" class="h"></rect></symbol></defs><rect height="44.088" width="80" class="a"></rect><g class="j"><svg x="0" y="0" width="4080"><svg x="0"><use xlink:href="#a"></use><use xlink:href="#b" x="-0.0040000000000000036" y="0"></use></svg><svg x="80"><use xlink:href="#a"></use><use xlink:href="#b" x="1.996" y="0"></use><use xlink:href="#1" y="0"></use></svg><svg x="160"><use xlink:href="#a"></use><use xlink:href="#b" x="-0.0040000000000000036" y="1.662"></use><use xlink:href="#2" y="0"></use></svg><svg x="240"><use xlink:href="#a"></use><use xlink:href="#b" x="-0.0040000000000000036" y="1.662"></use><use xlink:href="#2" y="0"></use></svg><svg x="320"><use xlink:href="#a"></use><use xlink:href="#b" x="-0.0040000000000000036" y="5.336"></use><use xlink:href="#2" y="0"></use><use xlink:href="#3" y="3.674"></use></svg><svg x="400"><use xlink:href="#a"></use><use xlink:href="#b" x="3.996" y="5.336"></use><use xlink:href="#2" y="0"></use><use xlink:href="#3" y="3.674"></use><text x="0" y="7.181" class="c">....</text></svg><svg x="480"><use xlink:href="#a"></use><use xlink:href="#b" x="4.996" y="5.336"></use><use xlink:href="#2" y="0"></use><use xlink:href="#3" y="3.674"></use><text x="0" y="7.181" class="c">.....</text></svg><svg x="560"><use xlink:href="#a"></use><use xlink:href="#b" x="7.996" y="5.336"></use><use xlink:href="#2" y="0"></use><use xlink:href="#3" y="3.674"></use><text x="0" y="7.181" class="c">........</text></svg><svg x="640"><use xlink:href="#a"></use><use xlink:href="#b" x="8.996" y="5.336"></use><use xlink:href="#2" y="0"></use><use xlink:href="#3" y="3.674"></use><text x="0" y="7.181" class="c">.........</text></svg><svg x="720"><use xlink:href="#a"></use><use xlink:href="#b" x="-0.0040000000000000036" y="7.173"></use><use xlink:href="#2" y="0"></use><use xlink:href="#3" y="3.674"></use><use xlink:href="#4" y="5.511"></use></svg><svg x="800"><use xlink:href="#a"></use><use xlink:href="#b" x="-0.0040000000000000036" y="10.847"></use><use xlink:href="#2" y="0"></use><use xlink:href="#3" y="3.674"></use><use xlink:href="#4" y="5.511"></use></svg><svg x="880"><use xlink:href="#a"></use><use xlink:href="#b" x="-0.0040000000000000036" y="12.684"></use><use xlink:href="#2" y="0"></use><use xlink:href="#3" y="3.674"></use><use xlink:href="#4" y="5.511"></use><use xlink:href="#5" y="11.022"></use></svg><svg x="960"><use xlink:href="#a"></use><use xlink:href="#b" x="-0.0040000000000000036" y="16.358"></use><use xlink:href="#2" y="0"></use><use xlink:href="#3" y="3.674"></use><use xlink:href="#4" y="5.511"></use><use xlink:href="#5" y="11.022"></use><use xlink:href="#6" y="14.696"></use></svg><svg x="1040"><use xlink:href="#a"></use><use xlink:href="#b" x="-0.0040000000000000036" y="18.195"></use><use xlink:href="#2" y="0"></use><use xlink:href="#3" y="3.674"></use><use xlink:href="#4" y="5.511"></use><use xlink:href="#5" y="11.022"></use><use xlink:href="#6" y="14.696"></use><use xlink:href="#7" y="16.533"></use></svg><svg x="1120"><use xlink:href="#a"></use><use xlink:href="#b" x="41.996" y="18.195"></use><use xlink:href="#2" y="0"></use><use xlink:href="#3" y="3.674"></use><use xlink:href="#4" y="5.511"></use><use xlink:href="#5" y="11.022"></use><use xlink:href="#6" y="14.696"></use><use xlink:href="#7" y="16.533"></use><text x="2.004" y="20.04" class="c">0/10</text><text x="7.013999999999999" y="20.04" class="c">[░░░░░░░░░░░░░░░░░░░░░░░░░░░░]</text><text x="40.08" y="20.04" class="c">0%</text></svg><svg x="1200"><use xlink:href="#a"></use><use xlink:href="#b" x="41.996" y="18.195"></use><use xlink:href="#2" y="0"></use><use xlink:href="#3" y="3.674"></use><use xlink:href="#4" y="5.511"></use><use xlink:href="#5" y="11.022"></use><use xlink:href="#6" y="14.696"></use><use xlink:href="#7" y="16.533"></use><use xlink:href="#8" y="18.37"></use></svg><svg x="1280"><use xlink:href="#a"></use><use xlink:href="#b" x="-0.0040000000000000036" y="21.869"></use><use xlink:href="#2" y="0"></use><use xlink:href="#3" y="3.674"></use><use xlink:href="#4" y="5.511"></use><use xlink:href="#5" y="11.022"></use><use xlink:href="#6" y="14.696"></use><use xlink:href="#7" y="16.533"></use><use xlink:href="#8" y="18.37"></use></svg><svg x="1360"><use xlink:href="#a"></use><use xlink:href="#b" x="-0.0040000000000000036" y="23.706000000000003"></use><use xlink:href="#2" y="0"></use><use xlink:href="#3" y="3.674"></use><use xlink:href="#4" y="5.511"></use><use xlink:href="#5" y="11.022"></use><use xlink:href="#6" y="14.696"></use><use xlink:href="#7" y="16.533"></use><use xlink:href="#8" y="18.37"></use></svg><svg x="1440"><use xlink:href="#a"></use><use xlink:href="#b" x="-0.0040000000000000036" y="31.054000000000002"></use><use xlink:href="#2" y="0"></use><use xlink:href="#3" y="3.674"></use><use xlink:href="#4" y="5.511"></use><use xlink:href="#5" y="11.022"></use><use xlink:href="#6" y="14.696"></use><use xlink:href="#7" y="16.533"></use><use xlink:href="#8" y="18.37"></use><use xlink:href="#9" y="23.881000000000004"></use><use xlink:href="#10" y="25.718"></use><use xlink:href="#9" y="27.555"></use></svg><svg x="1520"><use xlink:href="#a"></use><use xlink:href="#b" x="-0.0040000000000000036" y="34.728"></use><use xlink:href="#2" y="0"></use><use xlink:href="#3" y="3.674"></use><use xlink:href="#4" y="5.511"></use><use xlink:href="#5" y="11.022"></use><use xlink:href="#6" y="14.696"></use><use xlink:href="#7" y="16.533"></use><use xlink:href="#8" y="18.37"></use><use xlink:href="#9" y="23.881000000000004"></use><use xlink:href="#10" y="25.718"></use><use xlink:href="#9" y="27.555"></use><use xlink:href="#11" y="33.066"></use></svg><svg x="1600"><use xlink:href="#a"></use><use xlink:href="#b" x="-0.0040000000000000036" y="38.40200000000001"></use><use xlink:href="#2" y="0"></use><use xlink:href="#3" y="3.674"></use><use xlink:href="#4" y="5.511"></use><use xlink:href="#5" y="11.022"></use><use xlink:href="#6" y="14.696"></use><use xlink:href="#7" y="16.533"></use><use xlink:href="#8" y="18.37"></use><use xlink:href="#9" y="23.881000000000004"></use><use xlink:href="#10" y="25.718"></use><use xlink:href="#9" y="27.555"></use><use xlink:href="#11" y="33.066"></use></svg><svg x="1680"><use xlink:href="#a"></use><use xlink:href="#b" x="-0.0040000000000000036" y="42.076"></use><use xlink:href="#2" y="0"></use><use xlink:href="#3" y="3.674"></use><use xlink:href="#4" y="5.511"></use><use xlink:href="#5" y="11.022"></use><use xlink:href="#6" y="14.696"></use><use xlink:href="#7" y="16.533"></use><use xlink:href="#8" y="18.37"></use><use xlink:href="#9" y="23.881000000000004"></use><use xlink:href="#10" y="25.718"></use><use xlink:href="#9" y="27.555"></use><use xlink:href="#11" y="33.066"></use><use xlink:href="#9" y="38.577000000000005"></use><use xlink:href="#12" y="40.413999999999994"></use></svg><svg x="1760"><use xlink:href="#a"></use><use xlink:href="#b" x="-0.0040000000000000036" y="42.076"></use><use xlink:href="#3" y="0"></use><use xlink:href="#4" y="1.837"></use><use xlink:href="#5" y="7.348"></use><use xlink:href="#6" y="11.022"></use><use xlink:href="#7" y="12.859"></use><use xlink:href="#8" y="14.696"></use><use xlink:href="#9" y="20.206999999999997"></use><use xlink:href="#10" y="22.044"></use><use xlink:href="#9" y="23.881000000000004"></use><use xlink:href="#11" y="29.392"></use><use xlink:href="#9" y="34.903"></use><use xlink:href="#12" y="36.74"></use><use xlink:href="#9" y="38.577000000000005"></use></svg><svg x="1840"><use xlink:href="#a"></use><use xlink:href="#b" x="-0.0040000000000000036" y="42.076"></use><use xlink:href="#5" y="3.674"></use><use xlink:href="#6" y="7.348"></use><use xlink:href="#7" y="9.185"></use><use xlink:href="#8" y="11.022"></use><use xlink:href="#9" y="16.533"></use><use xlink:href="#10" y="18.37"></use><use xlink:href="#9" y="20.206999999999997"></use><use xlink:href="#11" y="25.718"></use><use xlink:href="#9" y="31.229000000000003"></use><use xlink:href="#12" y="33.066"></use><use xlink:href="#9" y="34.903"></use><use xlink:href="#13" y="40.413999999999994"></use></svg><svg x="1920"><use xlink:href="#a"></use><use xlink:href="#b" x="-0.0040000000000000036" y="42.076"></use><use xlink:href="#5" y="1.837"></use><use xlink:href="#6" y="5.511"></use><use xlink:href="#7" y="7.348"></use><use xlink:href="#8" y="9.185"></use><use xlink:href="#9" y="14.696"></use><use xlink:href="#10" y="16.533"></use><use xlink:href="#9" y="18.37"></use><use xlink:href="#11" y="23.881000000000004"></use><use xlink:href="#9" y="29.392"></use><use xlink:href="#12" y="31.229000000000003"></use><use xlink:href="#9" y="33.066"></use><use xlink:href="#13" y="38.577000000000005"></use></svg><svg x="2000"><use xlink:href="#a"></use><use xlink:href="#b" x="-0.0040000000000000036" y="42.076"></use><use xlink:href="#6" y="1.837"></use><use xlink:href="#7" y="3.674"></use><use xlink:href="#8" y="5.511"></use><use xlink:href="#9" y="11.022"></use><use xlink:href="#10" y="12.859"></use><use xlink:href="#9" y="14.696"></use><use xlink:href="#11" y="20.206999999999997"></use><use xlink:href="#9" y="25.718"></use><use xlink:href="#12" y="27.555"></use><use xlink:href="#9" y="29.392"></use><use xlink:href="#13" y="34.903"></use><use xlink:href="#9" y="38.577000000000005"></use><use xlink:href="#14" y="40.413999999999994"></use></svg><svg x="2080"><use xlink:href="#a"></use><use xlink:href="#b" x="-0.0040000000000000036" y="42.076"></use><use xlink:href="#7" y="0"></use><use xlink:href="#8" y="1.837"></use><use xlink:href="#9" y="7.348"></use><use xlink:href="#10" y="9.185"></use><use xlink:href="#9" y="11.022"></use><use xlink:href="#11" y="16.533"></use><use xlink:href="#9" y="22.044"></use><use xlink:href="#12" y="23.881000000000004"></use><use xlink:href="#9" y="25.718"></use><use xlink:href="#13" y="31.229000000000003"></use><use xlink:href="#9" y="34.903"></use><use xlink:href="#14" y="36.74"></use><use xlink:href="#9" y="38.577000000000005"></use></svg><svg x="2160"><use xlink:href="#a"></use><use xlink:href="#b" x="-0.0040000000000000036" y="42.076"></use><use xlink:href="#9" y="3.674"></use><use xlink:href="#10" y="5.511"></use><use xlink:href="#9" y="7.348"></use><use xlink:href="#11" y="12.859"></use><use xlink:href="#9" y="18.37"></use><use xlink:href="#12" y="20.206999999999997"></use><use xlink:href="#9" y="22.044"></use><use xlink:href="#13" y="27.555"></use><use xlink:href="#9" y="31.229000000000003"></use><use xlink:href="#14" y="33.066"></use><use xlink:href="#9" y="34.903"></use><use xlink:href="#15" y="40.413999999999994"></use></svg><svg x="2240"><use xlink:href="#a"></use><use xlink:href="#b" x="-0.0040000000000000036" y="42.076"></use><use xlink:href="#9" y="0"></use><use xlink:href="#11" y="5.511"></use><use xlink:href="#9" y="11.022"></use><use xlink:href="#12" y="12.859"></use><use xlink:href="#9" y="14.696"></use><use xlink:href="#13" y="20.206999999999997"></use><use xlink:href="#9" y="23.881000000000004"></use><use xlink:href="#14" y="25.718"></use><use xlink:href="#9" y="27.555"></use><use xlink:href="#15" y="33.066"></use><use xlink:href="#16" y="36.74"></use><use xlink:href="#17" y="38.577000000000005"></use></svg><svg x="2320"><use xlink:href="#a"></use><use xlink:href="#b" x="-0.0040000000000000036" y="42.076"></use><use xlink:href="#9" y="0"></use><use xlink:href="#11" y="5.511"></use><use xlink:href="#9" y="11.022"></use><use xlink:href="#12" y="12.859"></use><use xlink:href="#9" y="14.696"></use><use xlink:href="#13" y="20.206999999999997"></use><use xlink:href="#9" y="23.881000000000004"></use><use xlink:href="#14" y="25.718"></use><use xlink:href="#9" y="27.555"></use><use xlink:href="#15" y="33.066"></use><use xlink:href="#16" y="36.74"></use><use xlink:href="#17" y="38.577000000000005"></use></svg><svg x="2400"><use xlink:href="#a"></use><use xlink:href="#b" x="-0.0040000000000000036" y="42.076"></use><use xlink:href="#9" y="0"></use><use xlink:href="#11" y="5.511"></use><use xlink:href="#9" y="11.022"></use><use xlink:href="#12" y="12.859"></use><use xlink:href="#9" y="14.696"></use><use xlink:href="#13" y="20.206999999999997"></use><use xlink:href="#9" y="23.881000000000004"></use><use xlink:href="#14" y="25.718"></use><use xlink:href="#9" y="27.555"></use><use xlink:href="#15" y="33.066"></use><use xlink:href="#16" y="36.74"></use><use xlink:href="#17" y="38.577000000000005"></use></svg><svg x="2480"><use xlink:href="#a"></use><use xlink:href="#b" x="-0.0040000000000000036" y="42.076"></use><use xlink:href="#9" y="1.837"></use><use xlink:href="#12" y="3.674"></use><use xlink:href="#9" y="5.511"></use><use xlink:href="#13" y="11.022"></use><use xlink:href="#9" y="14.696"></use><use xlink:href="#14" y="16.533"></use><use xlink:href="#9" y="18.37"></use><use xlink:href="#15" y="23.881000000000004"></use><use xlink:href="#16" y="27.555"></use><use xlink:href="#17" y="29.392"></use><use xlink:href="#18" y="34.903"></use><use xlink:href="#19" y="36.74"></use><use xlink:href="#20" y="38.577000000000005"></use></svg><svg x="2560"><use xlink:href="#a"></use><use xlink:href="#b" x="-0.0040000000000000036" y="42.076"></use><use xlink:href="#9" y="1.837"></use><use xlink:href="#12" y="3.674"></use><use xlink:href="#9" y="5.511"></use><use xlink:href="#13" y="11.022"></use><use xlink:href="#9" y="14.696"></use><use xlink:href="#14" y="16.533"></use><use xlink:href="#9" y="18.37"></use><use xlink:href="#15" y="23.881000000000004"></use><use xlink:href="#16" y="27.555"></use><use xlink:href="#17" y="29.392"></use><use xlink:href="#18" y="34.903"></use><use xlink:href="#19" y="36.74"></use><use xlink:href="#20" y="38.577000000000005"></use></svg><svg x="2640"><use xlink:href="#a"></use><use xlink:href="#b" x="-0.0040000000000000036" y="42.076"></use><use xlink:href="#9" y="1.837"></use><use xlink:href="#12" y="3.674"></use><use xlink:href="#9" y="5.511"></use><use xlink:href="#13" y="11.022"></use><use xlink:href="#9" y="14.696"></use><use xlink:href="#14" y="16.533"></use><use xlink:href="#9" y="18.37"></use><use xlink:href="#15" y="23.881000000000004"></use><use xlink:href="#16" y="27.555"></use><use xlink:href="#17" y="29.392"></use><use xlink:href="#18" y="34.903"></use><use xlink:href="#19" y="36.74"></use><use xlink:href="#20" y="38.577000000000005"></use></svg><svg x="2720"><use xlink:href="#a"></use><use xlink:href="#b" x="0.996" y="42.076"></use><use xlink:href="#9" y="1.837"></use><use xlink:href="#12" y="3.674"></use><use xlink:href="#9" y="5.511"></use><use xlink:href="#13" y="11.022"></use><use xlink:href="#9" y="14.696"></use><use xlink:href="#14" y="16.533"></use><use xlink:href="#9" y="18.37"></use><use xlink:href="#15" y="23.881000000000004"></use><use xlink:href="#16" y="27.555"></use><use xlink:href="#17" y="29.392"></use><use xlink:href="#18" y="34.903"></use><use xlink:href="#19" y="36.74"></use><use xlink:href="#20" y="38.577000000000005"></use><use xlink:href="#21" y="42.251"></use></svg><svg x="2800"><use xlink:href="#a"></use><use xlink:href="#b" x="-0.0040000000000000036" y="42.076"></use><use xlink:href="#9" y="1.837"></use><use xlink:href="#12" y="3.674"></use><use xlink:href="#9" y="5.511"></use><use xlink:href="#13" y="11.022"></use><use xlink:href="#9" y="14.696"></use><use xlink:href="#14" y="16.533"></use><use xlink:href="#9" y="18.37"></use><use xlink:href="#15" y="23.881000000000004"></use><use xlink:href="#16" y="27.555"></use><use xlink:href="#17" y="29.392"></use><use xlink:href="#18" y="34.903"></use><use xlink:href="#19" y="36.74"></use><use xlink:href="#20" y="38.577000000000005"></use><use xlink:href="#21" y="42.251"></use></svg><svg x="2880"><use xlink:href="#a"></use><use xlink:href="#b" x="-0.0040000000000000036" y="42.076"></use><use xlink:href="#9" y="1.837"></use><use xlink:href="#12" y="3.674"></use><use xlink:href="#9" y="5.511"></use><use xlink:href="#13" y="11.022"></use><use xlink:href="#9" y="14.696"></use><use xlink:href="#14" y="16.533"></use><use xlink:href="#9" y="18.37"></use><use xlink:href="#15" y="23.881000000000004"></use><use xlink:href="#16" y="27.555"></use><use xlink:href="#17" y="29.392"></use><use xlink:href="#18" y="34.903"></use><use xlink:href="#19" y="36.74"></use><use xlink:href="#20" y="38.577000000000005"></use></svg><svg x="2960"><use xlink:href="#a"></use><use xlink:href="#b" x="-0.0040000000000000036" y="42.076"></use><use xlink:href="#13" y="1.837"></use><use xlink:href="#9" y="5.511"></use><use xlink:href="#14" y="7.348"></use><use xlink:href="#9" y="9.185"></use><use xlink:href="#15" y="14.696"></use><use xlink:href="#16" y="18.37"></use><use xlink:href="#17" y="20.206999999999997"></use><use xlink:href="#18" y="25.718"></use><use xlink:href="#19" y="27.555"></use><use xlink:href="#20" y="29.392"></use><use xlink:href="#22" y="34.903"></use><use xlink:href="#23" y="36.74"></use><use xlink:href="#24" y="38.577000000000005"></use></svg><svg x="3040"><use xlink:href="#a"></use><use xlink:href="#b" x="-0.0040000000000000036" y="42.076"></use><use xlink:href="#13" y="1.837"></use><use xlink:href="#9" y="5.511"></use><use xlink:href="#14" y="7.348"></use><use xlink:href="#9" y="9.185"></use><use xlink:href="#15" y="14.696"></use><use xlink:href="#16" y="18.37"></use><use xlink:href="#17" y="20.206999999999997"></use><use xlink:href="#18" y="25.718"></use><use xlink:href="#19" y="27.555"></use><use xlink:href="#20" y="29.392"></use><use xlink:href="#22" y="34.903"></use><use xlink:href="#23" y="36.74"></use><use xlink:href="#24" y="38.577000000000005"></use></svg><svg x="3120"><use xlink:href="#a"></use><use xlink:href="#b" x="0.996" y="42.076"></use><use xlink:href="#13" y="1.837"></use><use xlink:href="#9" y="5.511"></use><use xlink:href="#14" y="7.348"></use><use xlink:href="#9" y="9.185"></use><use xlink:href="#15" y="14.696"></use><use xlink:href="#16" y="18.37"></use><use xlink:href="#17" y="20.206999999999997"></use><use xlink:href="#18" y="25.718"></use><use xlink:href="#19" y="27.555"></use><use xlink:href="#20" y="29.392"></use><use xlink:href="#22" y="34.903"></use><use xlink:href="#23" y="36.74"></use><use xlink:href="#24" y="38.577000000000005"></use><use xlink:href="#21" y="42.251"></use></svg><svg x="3200"><use xlink:href="#a"></use><use xlink:href="#b" x="-0.0040000000000000036" y="42.076"></use><use xlink:href="#13" y="1.837"></use><use xlink:href="#9" y="5.511"></use><use xlink:href="#14" y="7.348"></use><use xlink:href="#9" y="9.185"></use><use xlink:href="#15" y="14.696"></use><use xlink:href="#16" y="18.37"></use><use xlink:href="#17" y="20.206999999999997"></use><use xlink:href="#18" y="25.718"></use><use xlink:href="#19" y="27.555"></use><use xlink:href="#20" y="29.392"></use><use xlink:href="#22" y="34.903"></use><use xlink:href="#23" y="36.74"></use><use xlink:href="#24" y="38.577000000000005"></use><use xlink:href="#21" y="42.251"></use></svg><svg x="3280"><use xlink:href="#a"></use><use xlink:href="#b" x="-0.0040000000000000036" y="42.076"></use><use xlink:href="#13" y="1.837"></use><use xlink:href="#9" y="5.511"></use><use xlink:href="#14" y="7.348"></use><use xlink:href="#9" y="9.185"></use><use xlink:href="#15" y="14.696"></use><use xlink:href="#16" y="18.37"></use><use xlink:href="#17" y="20.206999999999997"></use><use xlink:href="#18" y="25.718"></use><use xlink:href="#19" y="27.555"></use><use xlink:href="#20" y="29.392"></use><use xlink:href="#22" y="34.903"></use><use xlink:href="#23" y="36.74"></use><use xlink:href="#24" y="38.577000000000005"></use></svg><svg x="3360"><use xlink:href="#a"></use><use xlink:href="#b" x="0.996" y="42.076"></use><use xlink:href="#13" y="1.837"></use><use xlink:href="#9" y="5.511"></use><use xlink:href="#14" y="7.348"></use><use xlink:href="#9" y="9.185"></use><use xlink:href="#15" y="14.696"></use><use xlink:href="#16" y="18.37"></use><use xlink:href="#17" y="20.206999999999997"></use><use xlink:href="#18" y="25.718"></use><use xlink:href="#19" y="27.555"></use><use xlink:href="#20" y="29.392"></use><use xlink:href="#22" y="34.903"></use><use xlink:href="#23" y="36.74"></use><use xlink:href="#24" y="38.577000000000005"></use><use xlink:href="#21" y="42.251"></use></svg><svg x="3440"><use xlink:href="#a"></use><use xlink:href="#b" x="-0.0040000000000000036" y="42.076"></use><use xlink:href="#13" y="1.837"></use><use xlink:href="#9" y="5.511"></use><use xlink:href="#14" y="7.348"></use><use xlink:href="#9" y="9.185"></use><use xlink:href="#15" y="14.696"></use><use xlink:href="#16" y="18.37"></use><use xlink:href="#17" y="20.206999999999997"></use><use xlink:href="#18" y="25.718"></use><use xlink:href="#19" y="27.555"></use><use xlink:href="#20" y="29.392"></use><use xlink:href="#22" y="34.903"></use><use xlink:href="#23" y="36.74"></use><use xlink:href="#24" y="38.577000000000005"></use><use xlink:href="#21" y="42.251"></use></svg><svg x="3520"><use xlink:href="#a"></use><use xlink:href="#b" x="-0.0040000000000000036" y="42.076"></use><use xlink:href="#13" y="1.837"></use><use xlink:href="#9" y="5.511"></use><use xlink:href="#14" y="7.348"></use><use xlink:href="#9" y="9.185"></use><use xlink:href="#15" y="14.696"></use><use xlink:href="#16" y="18.37"></use><use xlink:href="#17" y="20.206999999999997"></use><use xlink:href="#18" y="25.718"></use><use xlink:href="#19" y="27.555"></use><use xlink:href="#20" y="29.392"></use><use xlink:href="#22" y="34.903"></use><use xlink:href="#23" y="36.74"></use><use xlink:href="#24" y="38.577000000000005"></use></svg><svg x="3600"><use xlink:href="#a"></use><use xlink:href="#b" x="1.996" y="42.076"></use><use xlink:href="#13" y="1.837"></use><use xlink:href="#9" y="5.511"></use><use xlink:href="#14" y="7.348"></use><use xlink:href="#9" y="9.185"></use><use xlink:href="#15" y="14.696"></use><use xlink:href="#16" y="18.37"></use><use xlink:href="#17" y="20.206999999999997"></use><use xlink:href="#18" y="25.718"></use><use xlink:href="#19" y="27.555"></use><use xlink:href="#20" y="29.392"></use><use xlink:href="#22" y="34.903"></use><use xlink:href="#23" y="36.74"></use><use xlink:href="#24" y="38.577000000000005"></use><use xlink:href="#1" y="42.251"></use></svg><svg x="3680"><use xlink:href="#a"></use><use xlink:href="#b" x="-0.0040000000000000036" y="42.076"></use><use xlink:href="#13" y="0"></use><use xlink:href="#9" y="3.674"></use><use xlink:href="#14" y="5.511"></use><use xlink:href="#9" y="7.348"></use><use xlink:href="#15" y="12.859"></use><use xlink:href="#16" y="16.533"></use><use xlink:href="#17" y="18.37"></use><use xlink:href="#18" y="23.881000000000004"></use><use xlink:href="#19" y="25.718"></use><use xlink:href="#20" y="27.555"></use><use xlink:href="#22" y="33.066"></use><use xlink:href="#23" y="34.903"></use><use xlink:href="#24" y="36.74"></use><use xlink:href="#25" y="40.413999999999994"></use></svg><svg x="3760"><use xlink:href="#a"></use><use xlink:href="#b" x="-0.0040000000000000036" y="42.076"></use><use xlink:href="#9" y="1.837"></use><use xlink:href="#14" y="3.674"></use><use xlink:href="#9" y="5.511"></use><use xlink:href="#15" y="11.022"></use><use xlink:href="#16" y="14.696"></use><use xlink:href="#17" y="16.533"></use><use xlink:href="#18" y="22.044"></use><use xlink:href="#19" y="23.881000000000004"></use><use xlink:href="#20" y="25.718"></use><use xlink:href="#22" y="31.229000000000003"></use><use xlink:href="#23" y="33.066"></use><use xlink:href="#24" y="34.903"></use><use xlink:href="#25" y="38.577000000000005"></use><use xlink:href="#26" y="40.413999999999994"></use></svg><svg x="3840"><use xlink:href="#a"></use><use xlink:href="#b" x="-0.0040000000000000036" y="42.076"></use><use xlink:href="#9" y="0"></use><use xlink:href="#14" y="1.837"></use><use xlink:href="#9" y="3.674"></use><use xlink:href="#15" y="9.185"></use><use xlink:href="#16" y="12.859"></use><use xlink:href="#17" y="14.696"></use><use xlink:href="#18" y="20.206999999999997"></use><use xlink:href="#19" y="22.044"></use><use xlink:href="#20" y="23.881000000000004"></use><use xlink:href="#22" y="29.392"></use><use xlink:href="#23" y="31.229000000000003"></use><use xlink:href="#24" y="33.066"></use><use xlink:href="#25" y="36.74"></use><use xlink:href="#26" y="38.577000000000005"></use><use xlink:href="#27" y="40.413999999999994"></use></svg><svg x="3920"><use xlink:href="#a"></use><use xlink:href="#b" x="-0.0040000000000000036" y="42.076"></use><use xlink:href="#14" y="0"></use><use xlink:href="#9" y="1.837"></use><use xlink:href="#15" y="7.348"></use><use xlink:href="#16" y="11.022"></use><use xlink:href="#17" y="12.859"></use><use xlink:href="#18" y="18.37"></use><use xlink:href="#19" y="20.206999999999997"></use><use xlink:href="#20" y="22.044"></use><use xlink:href="#22" y="27.555"></use><use xlink:href="#23" y="29.392"></use><use xlink:href="#24" y="31.229000000000003"></use><use xlink:href="#25" y="34.903"></use><use xlink:href="#26" y="36.74"></use><use xlink:href="#27" y="38.577000000000005"></use><use xlink:href="#28" y="40.413999999999994"></use></svg><svg x="4000"><use xlink:href="#a"></use><use xlink:href="#b" x="0.996" y="42.076"></use><use xlink:href="#14" y="0"></use><use xlink:href="#9" y="1.837"></use><use xlink:href="#15" y="7.348"></use><use xlink:href="#16" y="11.022"></use><use xlink:href="#17" y="12.859"></use><use xlink:href="#18" y="18.37"></use><use xlink:href="#19" y="20.206999999999997"></use><use xlink:href="#20" y="22.044"></use><use xlink:href="#22" y="27.555"></use><use xlink:href="#23" y="29.392"></use><use xlink:href="#24" y="31.229000000000003"></use><use xlink:href="#25" y="34.903"></use><use xlink:href="#26" y="36.74"></use><use xlink:href="#27" y="38.577000000000005"></use><use xlink:href="#28" y="40.413999999999994"></use></svg></svg></g></g></svg></svg>