<svg xmlns="http://www.w3.org/2000/svg" xmlns:xlink="http://www.w3.org/1999/xlink" width="800" height="440.88"><rect width="800" height="440.88" rx="0" ry="0" class="a"></rect><svg height="440.88" viewBox="0 0 80 44.088" width="800" xmlns="http://www.w3.org/2000/svg" xmlns:xlink="http://www.w3.org/1999/xlink"><style>.a{fill:rgb(40,44,52)}.b{font-family:Consolas,"Courier New",Courier,"Liberation Mono",monospace}.c{fill:rgb(171,178,191);white-space:pre}.d{fill:rgb(219,171,121)}.e{white-space:pre}.f{fill:transparent}.g{fill:rgb(82,139,255)}.i{animation-duration:16.573999999999998s;animation-iteration-count:infinite;animation-name:h;animation-timing-function:steps(1,end)}@keyframes h{0%{transform:translateX(-0px)}0.2%{transform:translateX(-80px)}17.9%{transform:translateX(-160px)}17.9%{transform:translateX(-240px)}36%{transform:translateX(-320px)}36.3%{transform:translateX(-400px)}36.3%{transform:translateX(-480px)}36.3%{transform:translateX(-560px)}36.3%{transform:translateX(-640px)}45.5%{transform:translateX(-720px)}63.6%{transform:translateX(-800px)}81.7%{transform:translateX(-880px)}81.7%{transform:translateX(-960px)}81.7%{transform:translateX(-1040px)}81.7%{transform:translateX(-1120px)}81.7%{transform:translateX(-1200px)}81.7%{transform:translateX(-1280px)}81.7%{transform:translateX(-1360px)}81.8%{transform:translateX(-1440px)}81.9%{transform:translateX(-1520px)}81.9%{transform:translateX(-1600px)}81.9%{transform:translateX(-1680px)}81.9%{transform:translateX(-1760px)}81.9%{transform:translateX(-1840px)}100%{transform:translateX(-1920px)}}</style><g font-family="Consolas, &quot;Courier New&quot;, Courier, &quot;Liberation Mono&quot;, monospace" font-size="1.67" class="b"><defs><symbol id="1"><text x="0" y="1.67" class="c">$</text></symbol><symbol id="2"><text x="0" y="1.67" class="c">$</text><text x="2.004" y="1.67" class="c">ahoy</text><text x="7.013999999999999" y="1.67" class="c">test</text></symbol><symbol id="3"><text x="0" y="1.67" class="c">PHPUnit</text><text x="8.016" y="1.67" class="c">11.5.55</text><text x="16.032" y="1.67" class="c">by</text><text x="19.037999999999997" y="1.67" class="c">Sebastian</text><text x="29.058" y="1.67" class="c">Bergmann</text><text x="38.07599999999999" y="1.67" class="c">and</text><text x="42.083999999999996" y="1.67" class="c">contributors.</text></symbol><symbol id="4"><text x="0" y="1.67" class="c">Runtime:</text><text x="15.029999999999998" y="1.67" class="c">PHP</text><text x="19.037999999999997" y="1.67" class="c">8.4.17</text><text x="26.052" y="1.67" class="c">with</text><text x="31.061999999999998" y="1.67" class="c">PCOV</text><text x="36.071999999999996" y="1.67" class="c">1.0.12</text></symbol><symbol id="5"><text x="0" y="1.67" class="c">Configuration:</text><text x="15.029999999999998" y="1.67" class="c">/private/home/user/project/build/phpunit.xml</text></symbol><symbol id="6"><text x="0" y="1.67" class="c">.......</text><text x="68.136" y="1.67" class="c">7</text><text x="70.13999999999999" y="1.67" class="c">/</text><text x="72.14399999999999" y="1.67" class="c">7</text><text x="74.148" y="1.67" class="c">(100%)</text></symbol><symbol id="7"><text x="0" y="1.67" class="c">HTML</text><text x="5.01" y="1.67" class="c">output</text><text x="12.024" y="1.67" class="c">was</text><text x="16.032" y="1.67" class="c">generated.</text></symbol><symbol id="8"><text x="0" y="1.67" class="c">http://localhost:8000/sites/simpletest/browser_output/Drupal_Tests_your_extensio</text></symbol><symbol id="9"><text x="0" y="1.67" class="c">n_Functional_YourExtensionFunctionalTest-1-50651785.html</text></symbol><symbol id="10"><text x="0" y="1.67" class="c">n_Functional_YourExtensionFunctionalTest-2-50651785.html</text></symbol><symbol id="11"><text x="0" y="1.67" class="c">n_Functional_YourExtensionFunctionalTest-3-50651785.html</text></symbol><symbol id="12"><text x="0" y="1.67" class="c">n_Functional_YourExtensionFunctionalTest-4-50651785.html</text></symbol><symbol id="13"><text x="0" y="1.67" class="c">n_Functional_YourExtensionFunctionalTest-5-50651785.html</text></symbol><symbol id="14"><text x="0" y="1.67" class="c">n_Functional_YourExtensionFunctionalTest-6-50651785.html</text></symbol><symbol id="15"><text x="0" y="1.67" class="c">n_Functional_YourExtensionFunctionalTest-7-50651785.html</text></symbol><symbol id="16"><text x="0" y="1.67" class="c">http://host.docker.internal:8000/sites/simpletest/browser_output/Drupal_Tests_yo</text></symbol><symbol id="17"><text x="0" y="1.67" class="c">ur_extension_FunctionalJavascript_YourExtensionSmokeJsTest-1-27472843.html</text></symbol><symbol id="18"><text x="0" y="1.67" class="c">ur_extension_FunctionalJavascript_YourExtensionSmokeJsTest-2-27472843.html</text></symbol><symbol id="19"><text x="0" y="1.67" class="c">ur_extension_FunctionalJavascript_YourExtensionSmokeJsTest-3-27472843.html</text></symbol><symbol id="20"><text x="0" y="1.67" class="c">Time:</text><text x="6.012" y="1.67" class="c">00:16.018,</text><text x="17.034" y="1.67" class="c">Memory:</text><text x="25.05" y="1.67" class="c">22.00</text><text x="31.061999999999998" y="1.67" class="c">MB</text></symbol><symbol id="21"><rect height="1.837" width="26" x="0" y="0" class="d"></rect><text x="0" y="1.67" class="e">OK, but there were issues!</text></symbol><symbol id="22"><rect height="1.837" width="50" x="0" y="0" class="d"></rect><text x="0" y="1.67" class="e">Tests: 7, Assertions: 22, PHPUnit Deprecations: 8.</text></symbol><symbol id="23"><text x="0" y="1.67" class="c">Generating</text><text x="11.021999999999998" y="1.67" class="c">code</text><text x="16.032" y="1.67" class="c">coverage</text><text x="25.05" y="1.67" class="c">report</text><text x="32.064" y="1.67" class="c">in</text><text x="35.06999999999999" y="1.67" class="c">Cobertura</text><text x="45.089999999999996" y="1.67" class="c">XML</text><text x="49.098" y="1.67" class="c">format</text><text x="56.111999999999995" y="1.67" class="c">...</text><text x="60.11999999999999" y="1.67" class="c">done</text><text x="65.13" y="1.67" class="c">[00:00.003]</text></symbol><symbol id="24"><text x="0" y="1.67" class="c">Generating</text><text x="11.021999999999998" y="1.67" class="c">code</text><text x="16.032" y="1.67" class="c">coverage</text><text x="25.05" y="1.67" class="c">report</text><text x="32.064" y="1.67" class="c">in</text><text x="35.06999999999999" y="1.67" class="c">HTML</text><text x="40.08" y="1.67" class="c">format</text><text x="47.093999999999994" y="1.67" class="c">...</text><text x="51.102" y="1.67" class="c">done</text><text x="56.111999999999995" y="1.67" class="c">[00:00.014]</text></symbol><symbol id="25"><text x="0" y="1.67" class="c">$</text><text x="2.004" y="1.67" class="c">exit</text></symbol><symbol id="26"><text x="0" y="1.67" class="c">exit</text></symbol><symbol id="a"><rect height="24" width="80" x="0" y="0" class="f"></rect></symbol><symbol id="b"><rect height="1.837" width="1.1022" class="g"></rect></symbol></defs><rect height="44.088" width="80" class="a"></rect><g class="i"><svg x="0" y="0" width="2000"><svg x="0"><use xlink:href="#a"></use><use xlink:href="#b" x="-0.0040000000000000036" y="0"></use></svg><svg x="80"><use xlink:href="#a"></use><use xlink:href="#b" x="1.996" y="0"></use><use xlink:href="#1" y="0"></use></svg><svg x="160"><use xlink:href="#a"></use><use xlink:href="#b" x="-0.0040000000000000036" y="1.662"></use><use xlink:href="#2" y="0"></use></svg><svg x="240"><use xlink:href="#a"></use><use xlink:href="#b" x="-0.0040000000000000036" y="1.662"></use><use xlink:href="#2" y="0"></use></svg><svg x="320"><use xlink:href="#a"></use><use xlink:href="#b" x="-0.0040000000000000036" y="10.847"></use><use xlink:href="#2" y="0"></use><use xlink:href="#3" y="1.837"></use><use xlink:href="#4" y="5.511"></use><use xlink:href="#5" y="7.348"></use></svg><svg x="400"><use xlink:href="#a"></use><use xlink:href="#b" x="0.996" y="10.847"></use><use xlink:href="#2" y="0"></use><use xlink:href="#3" y="1.837"></use><use xlink:href="#4" y="5.511"></use><use xlink:href="#5" y="7.348"></use><text x="0" y="12.692" class="c">.</text></svg><svg x="480"><use xlink:href="#a"></use><use xlink:href="#b" x="1.996" y="10.847"></use><use xlink:href="#2" y="0"></use><use xlink:href="#3" y="1.837"></use><use xlink:href="#4" y="5.511"></use><use xlink:href="#5" y="7.348"></use><text x="0" y="12.692" class="c">..</text></svg><svg x="560"><use xlink:href="#a"></use><use xlink:href="#b" x="2.996" y="10.847"></use><use xlink:href="#2" y="0"></use><use xlink:href="#3" y="1.837"></use><use xlink:href="#4" y="5.511"></use><use xlink:href="#5" y="7.348"></use><text x="0" y="12.692" class="c">...</text></svg><svg x="640"><use xlink:href="#a"></use><use xlink:href="#b" x="3.996" y="10.847"></use><use xlink:href="#2" y="0"></use><use xlink:href="#3" y="1.837"></use><use xlink:href="#4" y="5.511"></use><use xlink:href="#5" y="7.348"></use><text x="0" y="12.692" class="c">....</text></svg><svg x="720"><use xlink:href="#a"></use><use xlink:href="#b" x="4.996" y="10.847"></use><use xlink:href="#2" y="0"></use><use xlink:href="#3" y="1.837"></use><use xlink:href="#4" y="5.511"></use><use xlink:href="#5" y="7.348"></use><text x="0" y="12.692" class="c">.....</text></svg><svg x="800"><use xlink:href="#a"></use><use xlink:href="#b" x="5.996" y="10.847"></use><use xlink:href="#2" y="0"></use><use xlink:href="#3" y="1.837"></use><use xlink:href="#4" y="5.511"></use><use xlink:href="#5" y="7.348"></use><text x="0" y="12.692" class="c">......</text></svg><svg x="880"><use xlink:href="#a"></use><use xlink:href="#b" x="79.996" y="10.847"></use><use xlink:href="#2" y="0"></use><use xlink:href="#3" y="1.837"></use><use xlink:href="#4" y="5.511"></use><use xlink:href="#5" y="7.348"></use><use xlink:href="#6" y="11.022"></use></svg><svg x="960"><use xlink:href="#a"></use><use xlink:href="#b" x="15.996" y="42.076"></use><use xlink:href="#2" y="0"></use><use xlink:href="#3" y="1.837"></use><use xlink:href="#4" y="5.511"></use><use xlink:href="#5" y="7.348"></use><use xlink:href="#6" y="11.022"></use><use xlink:href="#7" y="14.696"></use><use xlink:href="#8" y="16.533"></use><use xlink:href="#9" y="18.37"></use><use xlink:href="#8" y="20.206999999999997"></use><use xlink:href="#10" y="22.044"></use><use xlink:href="#8" y="23.881000000000004"></use><use xlink:href="#11" y="25.718"></use><use xlink:href="#8" y="27.555"></use><use xlink:href="#12" y="29.392"></use><use xlink:href="#8" y="31.229000000000003"></use><use xlink:href="#13" y="33.066"></use><use xlink:href="#8" y="34.903"></use><use xlink:href="#14" y="36.74"></use><use xlink:href="#8" y="38.577000000000005"></use><use xlink:href="#15" y="40.413999999999994"></use><text x="0" y="43.921" class="c">http://host.dock</text></svg><svg x="1040"><use xlink:href="#a"></use><use xlink:href="#b" x="25.996" y="42.076"></use><use xlink:href="#2" y="0"></use><use xlink:href="#3" y="1.837"></use><use xlink:href="#4" y="5.511"></use><use xlink:href="#5" y="7.348"></use><use xlink:href="#6" y="11.022"></use><use xlink:href="#7" y="14.696"></use><use xlink:href="#8" y="16.533"></use><use xlink:href="#9" y="18.37"></use><use xlink:href="#8" y="20.206999999999997"></use><use xlink:href="#10" y="22.044"></use><use xlink:href="#8" y="23.881000000000004"></use><use xlink:href="#11" y="25.718"></use><use xlink:href="#8" y="27.555"></use><use xlink:href="#12" y="29.392"></use><use xlink:href="#8" y="31.229000000000003"></use><use xlink:href="#13" y="33.066"></use><use xlink:href="#8" y="34.903"></use><use xlink:href="#14" y="36.74"></use><use xlink:href="#8" y="38.577000000000005"></use><use xlink:href="#15" y="40.413999999999994"></use><text x="0" y="43.921" class="c">http://host.docker.interna</text></svg><svg x="1120"><use xlink:href="#a"></use><use xlink:href="#b" x="-0.0040000000000000036" y="42.076"></use><use xlink:href="#6" y="0"></use><use xlink:href="#7" y="3.674"></use><use xlink:href="#8" y="5.511"></use><use xlink:href="#9" y="7.348"></use><use xlink:href="#8" y="9.185"></use><use xlink:href="#10" y="11.022"></use><use xlink:href="#8" y="12.859"></use><use xlink:href="#11" y="14.696"></use><use xlink:href="#8" y="16.533"></use><use xlink:href="#12" y="18.37"></use><use xlink:href="#8" y="20.206999999999997"></use><use xlink:href="#13" y="22.044"></use><use xlink:href="#8" y="23.881000000000004"></use><use xlink:href="#14" y="25.718"></use><use xlink:href="#8" y="27.555"></use><use xlink:href="#15" y="29.392"></use><use xlink:href="#16" y="31.229000000000003"></use><use xlink:href="#17" y="33.066"></use><use xlink:href="#16" y="34.903"></use><use xlink:href="#18" y="36.74"></use><use xlink:href="#16" y="38.577000000000005"></use><use xlink:href="#19" y="40.413999999999994"></use></svg><svg x="1200"><use xlink:href="#a"></use><use xlink:href="#b" x="-0.0040000000000000036" y="42.076"></use><use xlink:href="#7" y="0"></use><use xlink:href="#8" y="1.837"></use><use xlink:href="#9" y="3.674"></use><use xlink:href="#8" y="5.511"></use><use xlink:href="#10" y="7.348"></use><use xlink:href="#8" y="9.185"></use><use xlink:href="#11" y="11.022"></use><use xlink:href="#8" y="12.859"></use><use xlink:href="#12" y="14.696"></use><use xlink:href="#8" y="16.533"></use><use xlink:href="#13" y="18.37"></use><use xlink:href="#8" y="20.206999999999997"></use><use xlink:href="#14" y="22.044"></use><use xlink:href="#8" y="23.881000000000004"></use><use xlink:href="#15" y="25.718"></use><use xlink:href="#16" y="27.555"></use><use xlink:href="#17" y="29.392"></use><use xlink:href="#16" y="31.229000000000003"></use><use xlink:href="#18" y="33.066"></use><use xlink:href="#16" y="34.903"></use><use xlink:href="#19" y="36.74"></use></svg><svg x="1280"><use xlink:href="#a"></use><use xlink:href="#b" x="-0.0040000000000000036" y="42.076"></use><use xlink:href="#9" y="0"></use><use xlink:href="#8" y="1.837"></use><use xlink:href="#10" y="3.674"></use><use xlink:href="#8" y="5.511"></use><use xlink:href="#11" y="7.348"></use><use xlink:href="#8" y="9.185"></use><use xlink:href="#12" y="11.022"></use><use xlink:href="#8" y="12.859"></use><use xlink:href="#13" y="14.696"></use><use xlink:href="#8" y="16.533"></use><use xlink:href="#14" y="18.37"></use><use xlink:href="#8" y="20.206999999999997"></use><use xlink:href="#15" y="22.044"></use><use xlink:href="#16" y="23.881000000000004"></use><use xlink:href="#17" y="25.718"></use><use xlink:href="#16" y="27.555"></use><use xlink:href="#18" y="29.392"></use><use xlink:href="#16" y="31.229000000000003"></use><use xlink:href="#19" y="33.066"></use><use xlink:href="#20" y="38.577000000000005"></use></svg><svg x="1360"><use xlink:href="#a"></use><use xlink:href="#b" x="59.996" y="42.076"></use><use xlink:href="#8" y="0"></use><use xlink:href="#11" y="1.837"></use><use xlink:href="#8" y="3.674"></use><use xlink:href="#12" y="5.511"></use><use xlink:href="#8" y="7.348"></use><use xlink:href="#13" y="9.185"></use><use xlink:href="#8" y="11.022"></use><use xlink:href="#14" y="12.859"></use><use xlink:href="#8" y="14.696"></use><use xlink:href="#15" y="16.533"></use><use xlink:href="#16" y="18.37"></use><use xlink:href="#17" y="20.206999999999997"></use><use xlink:href="#16" y="22.044"></use><use xlink:href="#18" y="23.881000000000004"></use><use xlink:href="#16" y="25.718"></use><use xlink:href="#19" y="27.555"></use><use xlink:href="#20" y="33.066"></use><use xlink:href="#21" y="36.74"></use><use xlink:href="#22" y="38.577000000000005"></use><text x="0" y="43.921" class="c">Generating</text><text x="11.021999999999998" y="43.921" class="c">code</text><text x="16.032" y="43.921" class="c">coverage</text><text x="25.05" y="43.921" class="c">report</text><text x="32.064" y="43.921" class="c">in</text><text x="35.06999999999999" y="43.921" class="c">Cobertura</text><text x="45.089999999999996" y="43.921" class="c">XML</text><text x="49.098" y="43.921" class="c">format</text><text x="56.111999999999995" y="43.921" class="c">...</text></svg><svg x="1440"><use xlink:href="#a"></use><use xlink:href="#b" x="50.996" y="42.076"></use><use xlink:href="#8" y="0"></use><use xlink:href="#12" y="1.837"></use><use xlink:href="#8" y="3.674"></use><use xlink:href="#13" y="5.511"></use><use xlink:href="#8" y="7.348"></use><use xlink:href="#14" y="9.185"></use><use xlink:href="#8" y="11.022"></use><use xlink:href="#15" y="12.859"></use><use xlink:href="#16" y="14.696"></use><use xlink:href="#17" y="16.533"></use><use xlink:href="#16" y="18.37"></use><use xlink:href="#18" y="20.206999999999997"></use><use xlink:href="#16" y="22.044"></use><use xlink:href="#19" y="23.881000000000004"></use><use xlink:href="#20" y="29.392"></use><use xlink:href="#21" y="33.066"></use><use xlink:href="#22" y="34.903"></use><use xlink:href="#23" y="38.577000000000005"></use><text x="0" y="43.921" class="c">Generating</text><text x="11.021999999999998" y="43.921" class="c">code</text><text x="16.032" y="43.921" class="c">coverage</text><text x="25.05" y="43.921" class="c">report</text><text x="32.064" y="43.921" class="c">in</text><text x="35.06999999999999" y="43.921" class="c">HTML</text><text x="40.08" y="43.921" class="c">format</text><text x="47.093999999999994" y="43.921" class="c">...</text></svg><svg x="1520"><use xlink:href="#a"></use><use xlink:href="#b" x="-0.0040000000000000036" y="42.076"></use><use xlink:href="#12" y="0"></use><use xlink:href="#8" y="1.837"></use><use xlink:href="#13" y="3.674"></use><use xlink:href="#8" y="5.511"></use><use xlink:href="#14" y="7.348"></use><use xlink:href="#8" y="9.185"></use><use xlink:href="#15" y="11.022"></use><use xlink:href="#16" y="12.859"></use><use xlink:href="#17" y="14.696"></use><use xlink:href="#16" y="16.533"></use><use xlink:href="#18" y="18.37"></use><use xlink:href="#16" y="20.206999999999997"></use><use xlink:href="#19" y="22.044"></use><use xlink:href="#20" y="27.555"></use><use xlink:href="#21" y="31.229000000000003"></use><use xlink:href="#22" y="33.066"></use><use xlink:href="#23" y="36.74"></use><use xlink:href="#24" y="40.413999999999994"></use></svg><svg x="1600"><use xlink:href="#a"></use><use xlink:href="#b" x="1.996" y="42.076"></use><use xlink:href="#12" y="0"></use><use xlink:href="#8" y="1.837"></use><use xlink:href="#13" y="3.674"></use><use xlink:href="#8" y="5.511"></use><use xlink:href="#14" y="7.348"></use><use xlink:href="#8" y="9.185"></use><use xlink:href="#15" y="11.022"></use><use xlink:href="#16" y="12.859"></use><use xlink:href="#17" y="14.696"></use><use xlink:href="#16" y="16.533"></use><use xlink:href="#18" y="18.37"></use><use xlink:href="#16" y="20.206999999999997"></use><use xlink:href="#19" y="22.044"></use><use xlink:href="#20" y="27.555"></use><use xlink:href="#21" y="31.229000000000003"></use><use xlink:href="#22" y="33.066"></use><use xlink:href="#23" y="36.74"></use><use xlink:href="#24" y="40.413999999999994"></use><use xlink:href="#1" y="42.251"></use></svg><svg x="1680"><use xlink:href="#a"></use><use xlink:href="#b" x="-0.0040000000000000036" y="42.076"></use><use xlink:href="#8" y="0"></use><use xlink:href="#13" y="1.837"></use><use xlink:href="#8" y="3.674"></use><use xlink:href="#14" y="5.511"></use><use xlink:href="#8" y="7.348"></use><use xlink:href="#15" y="9.185"></use><use xlink:href="#16" y="11.022"></use><use xlink:href="#17" y="12.859"></use><use xlink:href="#16" y="14.696"></use><use xlink:href="#18" y="16.533"></use><use xlink:href="#16" y="18.37"></use><use xlink:href="#19" y="20.206999999999997"></use><use xlink:href="#20" y="25.718"></use><use xlink:href="#21" y="29.392"></use><use xlink:href="#22" y="31.229000000000003"></use><use xlink:href="#23" y="34.903"></use><use xlink:href="#24" y="38.577000000000005"></use><use xlink:href="#25" y="40.413999999999994"></use></svg><svg x="1760"><use xlink:href="#a"></use><use xlink:href="#b" x="-0.0040000000000000036" y="42.076"></use><use xlink:href="#8" y="0"></use><use xlink:href="#13" y="1.837"></use><use xlink:href="#8" y="3.674"></use><use xlink:href="#14" y="5.511"></use><use xlink:href="#8" y="7.348"></use><use xlink:href="#15" y="9.185"></use><use xlink:href="#16" y="11.022"></use><use xlink:href="#17" y="12.859"></use><use xlink:href="#16" y="14.696"></use><use xlink:href="#18" y="16.533"></use><use xlink:href="#16" y="18.37"></use><use xlink:href="#19" y="20.206999999999997"></use><use xlink:href="#20" y="25.718"></use><use xlink:href="#21" y="29.392"></use><use xlink:href="#22" y="31.229000000000003"></use><use xlink:href="#23" y="34.903"></use><use xlink:href="#24" y="38.577000000000005"></use><use xlink:href="#25" y="40.413999999999994"></use></svg><svg x="1840"><use xlink:href="#a"></use><use xlink:href="#b" x="-0.0040000000000000036" y="42.076"></use><use xlink:href="#13" y="0"></use><use xlink:href="#8" y="1.837"></use><use xlink:href="#14" y="3.674"></use><use xlink:href="#8" y="5.511"></use><use xlink:href="#15" y="7.348"></use><use xlink:href="#16" y="9.185"></use><use xlink:href="#17" y="11.022"></use><use xlink:href="#16" y="12.859"></use><use xlink:href="#18" y="14.696"></use><use xlink:href="#16" y="16.533"></use><use xlink:href="#19" y="18.37"></use><use xlink:href="#20" y="23.881000000000004"></use><use xlink:href="#21" y="27.555"></use><use xlink:href="#22" y="29.392"></use><use xlink:href="#23" y="33.066"></use><use xlink:href="#24" y="36.74"></use><use xlink:href="#25" y="38.577000000000005"></use><use xlink:href="#26" y="40.413999999999994"></use></svg><svg x="1920"><use xlink:href="#a"></use><use xlink:href="#b" x="0.996" y="42.076"></use><use xlink:href="#13" y="0"></use><use xlink:href="#8" y="1.837"></use><use xlink:href="#14" y="3.674"></use><use xlink:href="#8" y="5.511"></use><use xlink:href="#15" y="7.348"></use><use xlink:href="#16" y="9.185"></use><use xlink:href="#17" y="11.022"></use><use xlink:href="#16" y="12.859"></use><use xlink:href="#18" y="14.696"></use><use xlink:href="#16" y="16.533"></use><use xlink:href="#19" y="18.37"></use><use xlink:href="#20" y="23.881000000000004"></use><use xlink:href="#21" y="27.555"></use><use xlink:href="#22" y="29.392"></use><use xlink:href="#23" y="33.066"></use><use xlink:href="#24" y="36.74"></use><use xlink:href="#25" y="38.577000000000005"></use><use xlink:href="#26" y="40.413999999999994"></use></svg></svg></g></g></svg></svg>