<?xml version="1.0" encoding="UTF-8"?>
<svg width="1171px" height="233px" viewBox="0 0 1171 233" version="1.1" xmlns="http://www.w3.org/2000/svg" xmlns:xlink="http://www.w3.org/1999/xlink">
    <!-- Generator: Sketch 62 (91390) - https://sketch.com -->
    <title>Group 3</title>
    <desc>Created with Sketch.</desc>
    <defs>
        <linearGradient x1="50%" y1="0%" x2="50%" y2="100%" id="linearGradient-1">
            <stop stop-color="#AB8BFA" offset="0%"></stop>
            <stop stop-color="#7353F2" offset="100%"></stop>
        </linearGradient>
        <linearGradient x1="50%" y1="0%" x2="50%" y2="100%" id="linearGradient-2">
            <stop stop-color="#9C7DEA" offset="0%"></stop>
            <stop stop-color="#7353F2" offset="100%"></stop>
        </linearGradient>
        <path d="M340.348,216.644 C349.298667,216.644 356.879333,215.182667 363.09,212.26 C369.300667,209.337333 374.324,205.318667 378.16,200.204 C381.813333,195.272 384.462,189.289667 386.106,182.257 C387.75,175.224333 388.572,167.598 388.572,159.378 C388.572,152.254 388.206667,145.906333 387.476,140.335 C386.745333,134.763667 385.375333,129.786 383.366,125.402 C381.174,121.200667 378.16,117.501667 374.324,114.305 C370.488,111.108333 365.464667,108.322667 359.254,105.948 L337.882,97.454 C334.228667,95.9926667 331.351667,94.5313333 329.251,93.07 C327.150333,91.6086667 325.552,89.8733333 324.456,87.864 C323.36,85.8546667 322.675,83.5713333 322.401,81.014 C322.127,78.4566667 321.99,75.26 321.99,71.424 C321.99,68.136 322.264,64.985 322.812,61.971 C323.36,58.957 324.364667,56.2626667 325.826,53.888 C327.287333,51.696 329.205333,49.8693333 331.58,48.408 C333.954667,46.9466667 337.06,46.216 340.896,46.216 C348.02,46.216 353.089,48.545 356.103,53.203 C359.117,57.861 360.624,63.3866667 360.624,69.78 L360.624,76.082 L388.572,76.082 L388.572,62.382 C388.572,51.0566667 384.370667,41.01 375.968,32.242 C371.766667,28.0406667 366.789,24.6613333 361.035,22.104 C355.281,19.5466667 348.933333,18.268 341.992,18.268 C333.772,18.268 326.693667,19.6836667 320.757,22.515 C314.820333,25.3463333 309.934,29.1366667 306.098,33.886 C302.079333,38.6353333 299.065333,44.298 297.056,50.874 C295.046667,57.45 294.042,64.3913333 294.042,71.698 C294.042,83.9366667 296.097,94.1203333 300.207,102.249 C304.317,110.377667 312.4,116.908 324.456,121.84 L344.458,130.06 C347.928667,131.521333 350.714333,132.891333 352.815,134.17 C354.915667,135.448667 356.605333,137.092667 357.884,139.102 C358.98,141.111333 359.710667,143.76 360.076,147.048 C360.441333,150.336 360.624,154.537333 360.624,159.652 C360.624,164.036 360.487,168.009 360.213,171.571 C359.939,175.133 359.071333,178.192667 357.61,180.75 C356.148667,183.307333 354.093667,185.271 351.445,186.641 C348.796333,188.011 345.097333,188.696 340.348,188.696 C333.224,188.696 328.155,186.641 325.141,182.531 C322.127,178.421 320.62,173.808667 320.62,168.694 L320.62,159.926 L292.672,159.926 L292.672,170.338 C292.672,176.914 293.905,182.987667 296.371,188.559 C298.837,194.130333 302.170667,199.016667 306.372,203.218 C310.573333,207.419333 315.596667,210.707333 321.442,213.082 C327.287333,215.456667 333.589333,216.644 340.348,216.644 Z M457.6775,216.644 C463.888167,216.644 469.687833,215.411 475.0765,212.945 C480.465167,210.479 485.168833,207.145333 489.1875,202.944 C493.206167,198.742667 496.357167,193.947667 498.6405,188.559 C500.923833,183.170333 502.0655,177.462 502.0655,171.434 L502.0655,171.434 L502.0655,159.378 L474.1175,159.378 L474.1175,168.968 C474.1175,172.804 473.5695,176.000667 472.4735,178.558 C471.3775,181.115333 470.0075,183.124667 468.3635,184.586 C466.536833,186.047333 464.573167,187.097667 462.4725,187.737 C460.371833,188.376333 458.408167,188.696 456.5815,188.696 C450.188167,188.696 445.7585,186.778 443.2925,182.942 C440.8265,179.106 439.5935,174.356667 439.5935,168.694 L439.5935,168.694 L439.5935,68.958 C439.5935,62.382 440.735167,56.9476667 443.0185,52.655 C445.301833,48.3623333 449.914167,46.216 456.8555,46.216 C462.152833,46.216 466.354167,48.2253333 469.4595,52.244 C472.564833,56.2626667 474.1175,61.012 474.1175,66.492 L474.1175,66.492 L474.1175,75.808 L502.0655,75.808 L502.0655,64.848 C502.0655,58.0893333 500.923833,51.833 498.6405,46.079 C496.357167,40.325 493.206167,35.3473333 489.1875,31.146 C480.9675,22.5606667 470.2815,18.268 457.1295,18.268 C450.370833,18.268 444.205833,19.4096667 438.6345,21.693 C433.063167,23.9763333 428.268167,27.1273333 424.2495,31.146 C420.230833,35.1646667 417.1255,39.914 414.9335,45.394 C412.7415,50.874 411.6455,56.8106667 411.6455,63.204 L411.6455,63.204 L411.6455,170.612 C411.6455,179.562667 413.061167,186.915 415.8925,192.669 C418.723833,198.423 422.3315,203.126667 426.7155,206.78 C431.0995,210.433333 436.0315,212.990667 441.5115,214.452 C446.9915,215.913333 452.380167,216.644 457.6775,216.644 Z M544.045,215 L552.265,173.078 L590.351,173.078 L598.571,215 L626.519,215 L582.953,19.912 L559.663,19.912 L516.097,215 L544.045,215 Z M585.145,146.774 L557.197,146.774 L570.897,76.082 L571.445,76.082 L585.145,146.774 Z M672.0605,215 L672.0605,131.704 L720.2845,131.704 L720.2845,105.4 L672.0605,105.4 L672.0605,46.216 L727.4085,46.216 L727.4085,19.912 L644.1125,19.912 L644.1125,215 L672.0605,215 Z M777.334,215 L777.334,131.704 L825.558,131.704 L825.558,105.4 L777.334,105.4 L777.334,46.216 L832.682,46.216 L832.682,19.912 L749.386,19.912 L749.386,215 L777.334,215 Z M899.8695,216.644 C905.532167,216.644 911.149167,215.639333 916.7205,213.63 C922.291833,211.620667 927.360833,208.606667 931.9275,204.588 C936.3115,200.752 939.8735,195.911333 942.6135,190.066 C945.3535,184.220667 946.7235,177.188 946.7235,168.968 L946.7235,168.968 L946.7235,65.944 C946.7235,58.0893333 945.3535,51.148 942.6135,45.12 C939.8735,39.092 936.3115,34.0686667 931.9275,30.05 C927.360833,26.214 922.291833,23.2913333 916.7205,21.282 C911.149167,19.2726667 905.532167,18.268 899.8695,18.268 C894.206833,18.268 888.589833,19.2726667 883.0185,21.282 C877.447167,23.2913333 872.4695,26.214 868.0855,30.05 C863.518833,34.0686667 859.8655,39.092 857.1255,45.12 C854.3855,51.148 853.0155,58.0893333 853.0155,65.944 L853.0155,65.944 L853.0155,168.968 C853.0155,177.188 854.3855,184.220667 857.1255,190.066 C859.8655,195.911333 863.518833,200.752 868.0855,204.588 C872.4695,208.606667 877.447167,211.620667 883.0185,213.63 C888.589833,215.639333 894.206833,216.644 899.8695,216.644 Z M899.8695,188.696 C894.754833,188.696 890.325167,187.097667 886.5805,183.901 C882.835833,180.704333 880.9635,175.726667 880.9635,168.968 L880.9635,168.968 L880.9635,65.944 C880.9635,59.1853333 882.835833,54.2076667 886.5805,51.011 C890.325167,47.8143333 894.754833,46.216 899.8695,46.216 C904.984167,46.216 909.413833,47.8143333 913.1585,51.011 C916.903167,54.2076667 918.7755,59.1853333 918.7755,65.944 L918.7755,65.944 L918.7755,168.968 C918.7755,175.726667 916.903167,180.704333 913.1585,183.901 C909.413833,187.097667 904.984167,188.696 899.8695,188.696 Z M1058.573,215 L1058.573,187.052 L1003.225,187.052 L1003.225,19.912 L975.277,19.912 L975.277,215 L1058.573,215 Z M1119.4585,215 C1136.08117,215 1148.82217,210.661667 1157.6815,201.985 C1166.54083,193.308333 1170.9705,179.836667 1170.9705,161.57 L1170.9705,161.57 L1170.9705,70.328 C1170.9705,54.2533333 1166.81483,41.832 1158.5035,33.064 C1150.19217,24.296 1137.99917,19.912 1121.9245,19.912 L1121.9245,19.912 L1080.5505,19.912 L1080.5505,215 L1119.4585,215 Z M1121.3765,188.696 L1108.4985,188.696 L1108.4985,46.216 L1121.3765,46.216 C1129.5965,46.216 1135.25917,48.3166667 1138.3645,52.518 C1141.46983,56.7193333 1143.0225,62.656 1143.0225,70.328 L1143.0225,70.328 L1143.0225,164.31 C1143.0225,172.712667 1141.3785,178.877667 1138.0905,182.805 C1134.8025,186.732333 1129.23117,188.696 1121.3765,188.696 L1121.3765,188.696 Z" id="path-3"></path>
    </defs>
    <g id="Page-1" stroke="none" stroke-width="1" fill="none" fill-rule="evenodd">
        <g id="Group-3" fill-rule="nonzero">
            <path d="M116,72 C117.6,72 197,150.8 197,152.5 C197,154.1 117.6,233 116,233 C114.1,233 -4.10256678e-15,119 -4.34749614e-15,117 C-4.54343962e-15,115.4 7.9,107 9.5,107 C10,107 33.9,130.4 62.5,159 L63.3566312,159.856422 C91.57967,188.06566 115.208,211 116,211 C117.8,211 175,154.1 175,152.3 C175,151.6 159.5,135.5 140.5,116.5 C121.5,97.5 106,81.7 106,81.3 C106,80.9 107.9,78.6 110.2,76.3 C112.5,73.9 115.1,72 116,72 Z M116,36 C117.7,36 215,132.9 215,134.6 C215,135.2 212.7,137.9 209.9,140.5 L209.9,140.5 L204.8,145.3 L161.1,101.6 C137.1,77.6 116.8,58 116,58 C114.6,58 92,79.8 92,81.2 C92,81.6 107.5,97.4 126.5,116.3 C145.5,135.3 161,151.4 161,152.1 C161,154 117.9,197 116,197 C115.2,197 92.5,175 65.5,148 L16.5,99 L21.5,94 C24.2,91.3 26.8,89 27.2,89 C27.7,89 47.6,108.6 71.6,132.5 C95.5,156.4 115.5,176 116,176 C116.5,176 122.2,170.8 128.5,164.5 C138.2,154.9 139.9,152.8 139.1,151.3 C138.6,150.3 123,134.4 104.6,116 C86.1,97.6 71,81.8 71,81 C71,80.2 80.8,69.8 92.8,57.8 C104.7,45.9 115.2,36.1 116,36 Z M116,0 C117.4,0 232,115.7 232,117.1 C232,118.5 223.9,127 222.6,127 C222.3,127 198.5,103.4 169.7,74.5 C140.8,45.6 116.7,22 116,22 C114.5,22 57,79.7 57,81.3 C57,82 72.5,98 91.5,117 C110.5,136 126,151.8 126,152.3 C126,153.7 117.6,162 116.2,162 C114.8,162 35,82.6 35,81.3 C35,80.81 52.38324,63.12884 73.8789128,41.6214464 L75.8648159,39.635244 C97.7642,17.73981 115.703,0 116,0 Z" id="Combined-Shape" fill="url(#linearGradient-1)"></path>
            <g id="SCAFFOLD">
                <use fill="#434343" xlink:href="#path-3"></use>
                <use fill="url(#linearGradient-2)" xlink:href="#path-3"></use>
            </g>
        </g>
    </g>
</svg>
